<?xml version="1.0" encoding="UTF-8" standalone="no"?>
<svg
   width="150"
   height="380"
   viewBox="0 0 150 380"
   version="1.1"
   id="svg13"
   sodipodi:docname="Phrasing.svg"
   inkscape:version="1.4.2 (ebf0e940, 2025-05-08)"
   xmlns:inkscape="http://www.inkscape.org/namespaces/inkscape"
   xmlns:sodipodi="http://sodipodi.sourceforge.net/DTD/sodipodi-0.dtd"
   xmlns="http://www.w3.org/2000/svg"
   xmlns:svg="http://www.w3.org/2000/svg">
  <sodipodi:namedview
     id="namedview13"
     pagecolor="#ffffff"
     bordercolor="#000000"
     borderopacity="0.25"
     inkscape:showpageshadow="2"
     inkscape:pageopacity="0.0"
     inkscape:pagecheckerboard="0"
     inkscape:deskcolor="#d1d1d1"
     inkscape:zoom="2.6552632"
     inkscape:cx="93.96432"
     inkscape:cy="180.96134"
     inkscape:window-width="1760"
     inkscape:window-height="1182"
     inkscape:window-x="598"
     inkscape:window-y="30"
     inkscape:window-maximized="0"
     inkscape:current-layer="svg13"
     showgrid="false" />
  <defs
     id="defs2">
    <linearGradient
       id="bgGrad"
       x1="0"
       y1="0"
       x2="0"
       y2="380"
       gradientUnits="userSpaceOnUse">
      <stop
         offset="0%"
         stop-color="#d0d0d0"
         id="stop1" />
      <stop
         offset="100%"
         stop-color="#b8b8b8"
         id="stop2" />
    </linearGradient>
  </defs>
  <!-- Panel background -->
  <rect
     x="0"
     y="0"
     width="150"
     height="380"
     fill="url(#bgGrad)"
     id="rect2" />
  <!-- THEREELPEET logo (centered) -->
  <!-- Nudge with translate(x,y) if needed -->
  <g
     id="thereelpeetLogo"
     transform="translate(-2.1806739,-12.142716)">
    <!-- THEREELPEET (black) -->
    <path
       d="m 31.73366,28.186202 h -2.770842 v 6.838563 h -1.031253 v -6.838563 h -2.770842 v -0.91667 h 6.572937 z m 9.32398,6.838563 h -1.031253 v -3.796887 h -3.869804 v 3.796887 H 35.12533 v -7.755233 h 1.031253 v 3.041677 h 3.869804 v -3.041677 h 1.031253 z m 9.542731,0 H 45.49098 v -7.755233 h 5.109391 v 0.91667 h -4.078137 v 2.125007 h 4.078137 v 0.916669 h -4.078137 v 2.880218 h 4.078137 z m 10.402109,0 h -1.338546 l -2.593758,-3.083343 h -1.45313 v 3.083343 h -1.031253 v -7.755233 h 2.171882 q 0.703127,0 1.171878,0.09375 0.468752,0.08854 0.843753,0.322917 0.421876,0.265626 0.656252,0.671877 0.239584,0.401043 0.239584,1.020837 0,0.838544 -0.421876,1.406254 -0.421877,0.562502 -1.161462,0.848961 z m -2.411466,-5.572934 q 0,-0.333335 -0.119792,-0.588544 -0.114584,-0.260417 -0.385418,-0.437501 -0.223959,-0.151042 -0.531252,-0.208334 -0.307293,-0.0625 -0.723961,-0.0625 h -1.213545 v 2.927092 h 1.04167 q 0.489585,0 0.854169,-0.08333 0.364585,-0.08854 0.619794,-0.322918 0.234376,-0.218751 0.343751,-0.500001 0.114584,-0.28646 0.114584,-0.723961 z m 10.870859,5.572934 h -5.109391 v -7.755233 h 5.109391 v 0.91667 h -4.078138 v 2.125007 h 4.078138 v 0.916669 h -4.078138 v 2.880218 h 4.078138 z m 9.094814,0 h -5.109391 v -7.755233 h 5.109391 v 0.91667 H 74.47855 v 2.125007 h 4.078137 v 0.916669 H 74.47855 v 2.880218 h 4.078137 z m 8.891689,0 h -4.906265 v -7.755233 h 1.031253 v 6.838564 h 3.875012 z m 8.454185,-5.411475 q 0,0.515626 -0.182292,0.958336 -0.177084,0.437501 -0.500002,0.760419 -0.401043,0.401043 -0.94792,0.604169 -0.546876,0.197917 -1.380212,0.197917 h -1.031254 v 2.890634 h -1.031253 v -7.755233 h 2.104173 q 0.697919,0 1.182296,0.119792 0.484376,0.114584 0.859378,0.364585 0.442709,0.296876 0.682293,0.739586 0.244793,0.442709 0.244793,1.119795 z m -1.07292,0.02604 q 0,-0.401042 -0.140626,-0.697918 -0.140625,-0.296876 -0.427084,-0.484377 -0.250001,-0.161459 -0.572919,-0.229167 -0.317709,-0.07292 -0.807294,-0.07292 h -1.020837 v 3.098968 h 0.869795 q 0.625002,0 1.015628,-0.109375 0.390626,-0.114584 0.635419,-0.359377 0.244792,-0.25 0.343751,-0.526043 0.104167,-0.276042 0.104167,-0.619794 z m 9.891689,5.385434 h -5.109391 v -7.755233 h 5.109391 v 0.91667 h -4.07814 v 2.125007 h 4.07814 v 0.916669 h -4.07814 v 2.880218 h 4.07814 z m 9.09481,0 h -5.10939 v -7.755233 h 5.10939 v 0.91667 H 109.738 v 2.125007 h 4.07814 v 0.916669 H 109.738 v 2.880218 h 4.07814 z m 9.51669,-6.838563 h -2.77084 v 6.838563 h -1.03125 v -6.838563 h -2.77084 v -0.91667 h 6.57293 z"
       id="text8"
       style="font-size:10.6667px;-inkscape-font-specification:'sans-serif, Normal';letter-spacing:2.35px"
       aria-label="THEREELPEET" />
    <!-- THEREELPEET (red shadow/offset) -->
    <path
       d="m 33.027844,29.246693 h -2.770842 v 6.838563 h -1.031253 v -6.838563 h -2.770843 v -0.91667 h 6.572938 z m 9.32398,6.838563 h -1.031253 v -3.796887 h -3.869804 v 3.796887 h -1.031253 v -7.755233 h 1.031253 V 31.3717 h 3.869804 v -3.041677 h 1.031253 z m 9.542731,0 h -5.109391 v -7.755233 h 5.109391 v 0.91667 H 47.816417 V 31.3717 h 4.078138 v 0.916669 h -4.078138 v 2.880218 h 4.078138 z m 10.402108,0 H 60.958117 L 58.364359,33.001913 H 56.91123 v 3.083343 h -1.031254 v -7.755233 h 2.171882 q 0.703127,0 1.171879,0.09375 0.468751,0.08854 0.843753,0.322917 0.421876,0.265626 0.656252,0.671878 0.239584,0.401042 0.239584,1.020836 0,0.838544 -0.421877,1.406255 -0.421876,0.562501 -1.161462,0.848961 z m -2.411466,-5.572934 q 0,-0.333334 -0.119792,-0.588544 -0.114583,-0.260417 -0.385418,-0.437501 -0.223959,-0.151042 -0.531251,-0.208334 -0.307293,-0.0625 -0.723961,-0.0625 H 56.91123 v 2.927092 h 1.04167 q 0.489584,0 0.854169,-0.08333 0.364584,-0.08854 0.619794,-0.322918 0.234375,-0.218751 0.343751,-0.500001 0.114583,-0.28646 0.114583,-0.723961 z m 10.87086,5.572934 h -5.109391 v -7.755233 h 5.109391 v 0.91667 H 66.677919 V 31.3717 h 4.078138 v 0.916669 h -4.078138 v 2.880218 h 4.078138 z m 9.094814,0 H 74.74148 v -7.755233 h 5.109391 v 0.91667 H 75.772733 V 31.3717 h 4.078138 v 0.916669 h -4.078138 v 2.880218 h 4.078138 z m 8.891689,0 h -4.906266 v -7.755233 h 1.031254 v 6.838564 h 3.875012 z m 8.454185,-5.411475 q 0,0.515626 -0.182293,0.958336 -0.177084,0.437502 -0.500001,0.760419 -0.401043,0.401043 -0.94792,0.604169 -0.546877,0.197917 -1.380213,0.197917 h -1.031253 v 2.890634 h -1.031253 v -7.755233 h 2.104173 q 0.697919,0 1.182296,0.119792 0.484376,0.114584 0.859377,0.364585 0.44271,0.296876 0.682294,0.739586 0.244793,0.442709 0.244793,1.119795 z m -1.072921,0.02604 q 0,-0.401043 -0.140625,-0.697919 -0.140625,-0.296876 -0.427085,-0.484377 -0.25,-0.161459 -0.572918,-0.229167 -0.317709,-0.07292 -0.807294,-0.07292 h -1.020837 v 3.098968 h 0.869795 q 0.625001,0 1.015628,-0.109375 0.390626,-0.114584 0.635418,-0.359376 0.244793,-0.250001 0.343751,-0.526044 0.104167,-0.276042 0.104167,-0.619793 z m 9.891686,5.385433 h -5.10939 v -7.755233 h 5.10939 v 0.91667 h -4.07813 v 2.125007 h 4.07813 v 0.916669 h -4.07813 v 2.880218 h 4.07813 z m 9.09481,0 h -5.10939 v -7.755233 h 5.10939 v 0.91667 h -4.07813 v 2.125007 h 4.07813 v 0.916669 h -4.07813 v 2.880218 h 4.07813 z m 9.5167,-6.838563 h -2.77084 v 6.838563 h -1.03126 v -6.838563 h -2.77084 v -0.91667 h 6.57294 z"
       id="text8-1"
       style="font-size:10.6667px;-inkscape-font-specification:'sans-serif, Normal';letter-spacing:2.35px;fill:#ff0000"
       aria-label="THEREELPEET" />
  </g>
  <!-- GLOBAL knob (density) centered under logo -->
  <g
     id="globalControl"
     fill="none"
     stroke="#111"
     stroke-opacity="0.65">
    <!-- removed circle2 -->
  </g>
  <g
     id="vcv-global-anchor"
     fill="#000"
     fill-opacity="0">
    <circle
       id="DENSITY_PARAM"
       cx="75"
       cy="58"
       r="16" />
  </g>
  <!-- Vertical lanes with color identity -->
  <!-- Lowered a bit to make room for global knob -->
  <g
     id="lanes">
    <rect
       x="6"
       y="90"
       width="32"
       height="276"
       rx="7"
       ry="7"
       fill="#d94a4a"
       fill-opacity="0.18"
       stroke="#000"
       stroke-opacity="0.10"
       stroke-width="1"
       id="rect3" />
    <rect
       x="40"
       y="90"
       width="32"
       height="276"
       rx="7"
       ry="7"
       fill="#4a78d9"
       fill-opacity="0.18"
       stroke="#000"
       stroke-opacity="0.10"
       stroke-width="1"
       id="rect4" />
    <rect
       x="74"
       y="90"
       width="32"
       height="276"
       rx="7"
       ry="7"
       fill="#5fa86e"
       fill-opacity="0.18"
       stroke="#000"
       stroke-opacity="0.10"
       stroke-width="1"
       id="rect5" />
    <rect
       x="108"
       y="90"
       width="32"
       height="276"
       rx="7"
       ry="7"
       fill="#d9b44a"
       fill-opacity="0.18"
       stroke="#000"
       stroke-opacity="0.10"
       stroke-width="1"
       id="rect6" />
    <path
       d="m 17.308592,248.53317 h -1.960936 v 1.09375 h 1.684895 v 0.45833 h -1.684895 v 1.86719 h -0.515625 v -3.8776 h 2.476561 z m 1.04427,3.41927 h -0.489583 v -4.05208 h 0.489583 z m 3.447915,-1.45313 q 0,0.71094 -0.364583,1.1224 -0.364583,0.41146 -0.976562,0.41146 -0.617187,0 -0.98177,-0.41146 -0.361979,-0.41146 -0.361979,-1.1224 0,-0.71093 0.361979,-1.12239 0.364583,-0.41406 0.98177,-0.41406 0.611979,0 0.976562,0.41406 0.364583,0.41146 0.364583,1.12239 z m -0.505208,0 q 0,-0.5651 -0.221354,-0.83854 -0.221354,-0.27604 -0.614583,-0.27604 -0.398437,0 -0.619791,0.27604 -0.21875,0.27344 -0.21875,0.83854 0,0.54688 0.221354,0.83073 0.221354,0.28125 0.617187,0.28125 0.390625,0 0.611979,-0.27864 0.223958,-0.28125 0.223958,-0.83334 z m 3.742185,0 q 0,0.71094 -0.364583,1.1224 -0.364583,0.41146 -0.976562,0.41146 -0.617187,0 -0.98177,-0.41146 -0.361979,-0.41146 -0.361979,-1.1224 0,-0.71093 0.361979,-1.12239 0.364583,-0.41406 0.98177,-0.41406 0.611979,0 0.976562,0.41406 0.364583,0.41146 0.364583,1.12239 z m -0.505208,0 q 0,-0.5651 -0.221354,-0.83854 -0.221354,-0.27604 -0.614583,-0.27604 -0.398437,0 -0.619791,0.27604 -0.21875,0.27344 -0.21875,0.83854 0,0.54688 0.221354,0.83073 0.221354,0.28125 0.617187,0.28125 0.390625,0 0.611979,-0.27864 0.223958,-0.28125 0.223958,-0.83334 z m 3.078124,-0.92187 h -0.02604 q -0.109375,-0.026 -0.213542,-0.0365 -0.101562,-0.013 -0.242187,-0.013 -0.226562,0 -0.4375,0.10156 -0.210937,0.099 -0.406249,0.25781 v 2.06511 h -0.489583 v -2.90886 h 0.489583 v 0.42969 q 0.291666,-0.23437 0.51302,-0.33073 0.223958,-0.099 0.455729,-0.099 0.127604,0 0.184896,0.008 0.05729,0.005 0.171875,0.0234 z"
       id="text6"
       style="font-size:5.33333px;font-family:Sans;-inkscape-font-specification:'Sans, Normal';letter-spacing:0px"
       aria-label="Floor" />
    <path
       d="m 51.779838,248.53317 h -1.960936 v 1.09375 h 1.684895 v 0.45833 h -1.684895 v 1.86719 h -0.515625 v -3.8776 h 2.476561 z m 1.04427,3.41927 h -0.489583 v -4.05208 h 0.489583 z m 3.447915,-1.45313 q 0,0.71094 -0.364583,1.1224 -0.364583,0.41146 -0.976562,0.41146 -0.617187,0 -0.98177,-0.41146 -0.361979,-0.41146 -0.361979,-1.1224 0,-0.71093 0.361979,-1.12239 0.364583,-0.41406 0.98177,-0.41406 0.611979,0 0.976562,0.41406 0.364583,0.41146 0.364583,1.12239 z m -0.505208,0 q 0,-0.5651 -0.221354,-0.83854 -0.221354,-0.27604 -0.614583,-0.27604 -0.398437,0 -0.619791,0.27604 -0.21875,0.27344 -0.21875,0.83854 0,0.54688 0.221354,0.83073 0.221354,0.28125 0.617187,0.28125 0.390625,0 0.611979,-0.27864 0.223958,-0.28125 0.223958,-0.83334 z m 3.742185,0 q 0,0.71094 -0.364583,1.1224 -0.364583,0.41146 -0.976562,0.41146 -0.617187,0 -0.98177,-0.41146 -0.361979,-0.41146 -0.361979,-1.1224 0,-0.71093 0.361979,-1.12239 0.364583,-0.41406 0.98177,-0.41406 0.611979,0 0.976562,0.41406 0.364583,0.41146 0.364583,1.12239 z m -0.505208,0 q 0,-0.5651 -0.221354,-0.83854 -0.221354,-0.27604 -0.614583,-0.27604 -0.398437,0 -0.619791,0.27604 -0.21875,0.27344 -0.21875,0.83854 0,0.54688 0.221354,0.83073 0.221354,0.28125 0.617187,0.28125 0.390625,0 0.611979,-0.27864 0.223958,-0.28125 0.223958,-0.83334 z m 3.078123,-0.92187 h -0.02604 q -0.109375,-0.026 -0.213542,-0.0365 -0.101562,-0.013 -0.242187,-0.013 -0.226562,0 -0.4375,0.10156 -0.210937,0.099 -0.40625,0.25781 v 2.06511 h -0.489583 v -2.90886 h 0.489583 v 0.42969 q 0.291667,-0.23437 0.513021,-0.33073 0.223958,-0.099 0.455729,-0.099 0.127604,0 0.184896,0.008 0.05729,0.005 0.171874,0.0234 z"
       id="text6-7"
       style="font-size:5.33333px;font-family:Sans;-inkscape-font-specification:'Sans, Normal';letter-spacing:0px"
       aria-label="Floor" />
    <path
       d="m 86.476558,248.53317 h -1.960936 v 1.09375 h 1.684895 v 0.45833 h -1.684895 v 1.86719 h -0.515625 v -3.8776 h 2.476561 z m 1.04427,3.41927 h -0.489583 v -4.05208 h 0.489583 z m 3.447915,-1.45313 q 0,0.71094 -0.364583,1.1224 -0.364583,0.41146 -0.976562,0.41146 -0.617187,0 -0.98177,-0.41146 -0.361979,-0.41146 -0.361979,-1.1224 0,-0.71093 0.361979,-1.12239 0.364583,-0.41406 0.98177,-0.41406 0.611979,0 0.976562,0.41406 0.364583,0.41146 0.364583,1.12239 z m -0.505208,0 q 0,-0.5651 -0.221354,-0.83854 -0.221354,-0.27604 -0.614583,-0.27604 -0.398437,0 -0.619791,0.27604 -0.21875,0.27344 -0.21875,0.83854 0,0.54688 0.221354,0.83073 0.221354,0.28125 0.617187,0.28125 0.390625,0 0.611979,-0.27864 0.223958,-0.28125 0.223958,-0.83334 z m 3.742185,0 q 0,0.71094 -0.364583,1.1224 -0.364583,0.41146 -0.976562,0.41146 -0.617187,0 -0.98177,-0.41146 -0.361979,-0.41146 -0.361979,-1.1224 0,-0.71093 0.361979,-1.12239 0.364583,-0.41406 0.98177,-0.41406 0.611979,0 0.976562,0.41406 0.364583,0.41146 0.364583,1.12239 z m -0.505208,0 q 0,-0.5651 -0.221354,-0.83854 -0.221354,-0.27604 -0.614583,-0.27604 -0.398437,0 -0.619791,0.27604 -0.21875,0.27344 -0.21875,0.83854 0,0.54688 0.221354,0.83073 0.221354,0.28125 0.617187,0.28125 0.390625,0 0.611979,-0.27864 0.223958,-0.28125 0.223958,-0.83334 z m 3.078124,-0.92187 h -0.02604 q -0.109375,-0.026 -0.213542,-0.0365 -0.101562,-0.013 -0.242187,-0.013 -0.226562,0 -0.4375,0.10156 -0.210937,0.099 -0.406249,0.25781 v 2.06511 h -0.489584 v -2.90886 h 0.489584 v 0.42969 q 0.291666,-0.23437 0.51302,-0.33073 0.223958,-0.099 0.455729,-0.099 0.127604,0 0.184896,0.008 0.05729,0.005 0.171875,0.0234 z"
       id="text6-9"
       style="font-size:5.33333px;font-family:Sans;-inkscape-font-specification:'Sans, Normal';letter-spacing:0px"
       aria-label="Floor" />
    <path
       d="m 120.07418,248.53317 h -1.96093 v 1.09375 h 1.68489 v 0.45833 h -1.68489 v 1.86719 h -0.51563 v -3.8776 h 2.47656 z m 1.04427,3.41927 h -0.48958 v -4.05208 h 0.48958 z m 3.44792,-1.45313 q 0,0.71094 -0.36458,1.1224 -0.36459,0.41146 -0.97657,0.41146 -0.61718,0 -0.98177,-0.41146 -0.36198,-0.41146 -0.36198,-1.1224 0,-0.71093 0.36198,-1.12239 0.36459,-0.41406 0.98177,-0.41406 0.61198,0 0.97657,0.41406 0.36458,0.41146 0.36458,1.12239 z m -0.50521,0 q 0,-0.5651 -0.22135,-0.83854 -0.22136,-0.27604 -0.61459,-0.27604 -0.39843,0 -0.61979,0.27604 -0.21875,0.27344 -0.21875,0.83854 0,0.54688 0.22136,0.83073 0.22135,0.28125 0.61718,0.28125 0.39063,0 0.61198,-0.27864 0.22396,-0.28125 0.22396,-0.83334 z m 3.74219,0 q 0,0.71094 -0.36459,1.1224 -0.36458,0.41146 -0.97656,0.41146 -0.61719,0 -0.98177,-0.41146 -0.36198,-0.41146 -0.36198,-1.1224 0,-0.71093 0.36198,-1.12239 0.36458,-0.41406 0.98177,-0.41406 0.61198,0 0.97656,0.41406 0.36459,0.41146 0.36459,1.12239 z m -0.50521,0 q 0,-0.5651 -0.22136,-0.83854 -0.22135,-0.27604 -0.61458,-0.27604 -0.39844,0 -0.61979,0.27604 -0.21875,0.27344 -0.21875,0.83854 0,0.54688 0.22135,0.83073 0.22136,0.28125 0.61719,0.28125 0.39063,0 0.61198,-0.27864 0.22396,-0.28125 0.22396,-0.83334 z m 3.07812,-0.92187 h -0.026 q -0.10938,-0.026 -0.21354,-0.0365 -0.10156,-0.013 -0.24219,-0.013 -0.22656,0 -0.4375,0.10156 -0.21094,0.099 -0.40625,0.25781 v 2.06511 h -0.48958 v -2.90886 h 0.48958 v 0.42969 q 0.29167,-0.23437 0.51302,-0.33073 0.22396,-0.099 0.45573,-0.099 0.1276,0 0.1849,0.008 0.0573,0.005 0.17187,0.0234 z"
       id="text6-1"
       style="font-size:5.33333px;font-family:Sans;-inkscape-font-specification:'Sans, Normal';letter-spacing:0px"
       aria-label="Floor" />
  </g>
  <path
     d="m 118.94986,167.85679 -1.00781,3.8776 h -0.58073 l -0.81511,-3.21875 -0.79687,3.21875 h -0.56771 l -1.02604,-3.8776 h 0.52865 l 0.8151,3.22395 0.80208,-3.22395 h 0.52344 l 0.8099,3.2552 0.80989,-3.2552 z m 2.89583,2.47396 h -2.14323 q 0,0.26822 0.0807,0.46874 0.0807,0.19792 0.22136,0.32553 0.13541,0.125 0.32031,0.1875 0.1875,0.0625 0.41146,0.0625 0.29687,0 0.59635,-0.11719 0.30208,-0.11979 0.42969,-0.23438 h 0.026 v 0.53386 q -0.2474,0.10416 -0.50521,0.17448 -0.25781,0.0703 -0.54167,0.0703 -0.72395,0 -1.1302,-0.39063 -0.40625,-0.39323 -0.40625,-1.11458 0,-0.71354 0.38802,-1.13281 0.39062,-0.41927 1.02604,-0.41927 0.58854,0 0.90625,0.34375 0.32031,0.34375 0.32031,0.97656 z m -0.47656,-0.375 q -0.003,-0.38542 -0.19531,-0.59636 -0.19011,-0.21094 -0.58073,-0.21094 -0.39323,0 -0.62761,0.23177 -0.23177,0.23178 -0.26302,0.57553 z m 1.74479,-1.61719 h -0.55208 v -0.50781 h 0.55208 z m -0.0312,3.39583 h -0.48958 v -2.90885 h 0.48958 z m 3.32812,-0.33073 q 0,0.73958 -0.33594,1.08594 -0.33593,0.34635 -1.03385,0.34635 -0.23177,0 -0.45312,-0.0339 -0.21875,-0.0312 -0.4323,-0.0911 v -0.5 h 0.026 q 0.11979,0.0469 0.3802,0.11459 0.26042,0.0703 0.52084,0.0703 0.25,0 0.41406,-0.0599 0.16406,-0.0599 0.25521,-0.16666 0.0911,-0.10157 0.13021,-0.2448 0.0391,-0.14322 0.0391,-0.32031 v -0.26562 q -0.22136,0.17708 -0.42448,0.26562 -0.20052,0.0859 -0.51302,0.0859 -0.52083,0 -0.82813,-0.375 -0.30468,-0.3776 -0.30468,-1.0625 0,-0.375 0.10416,-0.64583 0.10677,-0.27344 0.28907,-0.47136 0.16927,-0.18489 0.41145,-0.28645 0.24219,-0.10417 0.48178,-0.10417 0.2526,0 0.42187,0.0521 0.17187,0.0495 0.36198,0.15365 l 0.0312,-0.125 h 0.45833 z m -0.48958,-0.46875 v -1.58593 q -0.19531,-0.0885 -0.36458,-0.125 -0.16667,-0.0391 -0.33334,-0.0391 -0.40364,0 -0.63541,0.27084 -0.23177,0.27083 -0.23177,0.78645 0,0.48959 0.17187,0.74219 0.17188,0.2526 0.57031,0.2526 0.21354,0 0.42709,-0.0807 0.21614,-0.0833 0.39583,-0.22136 z m 3.88541,0.79948 h -0.48958 v -1.65625 q 0,-0.20052 -0.0234,-0.375 -0.0234,-0.17708 -0.0859,-0.27604 -0.0651,-0.10937 -0.1875,-0.16146 -0.1224,-0.0547 -0.31771,-0.0547 -0.20052,0 -0.41927,0.099 -0.21875,0.099 -0.41927,0.25261 v 2.17187 h -0.48959 v -4.05208 h 0.48959 v 1.46614 q 0.22916,-0.1901 0.47395,-0.29687 0.2448,-0.10677 0.50261,-0.10677 0.47135,0 0.71875,0.28385 0.24739,0.28386 0.24739,0.81771 z m 2.45313,-0.026 q -0.13802,0.0365 -0.30209,0.0599 -0.16145,0.0234 -0.28906,0.0234 -0.44531,0 -0.67708,-0.23958 -0.23177,-0.23958 -0.23177,-0.76823 V 169.237 h -0.33073 v -0.41146 h 0.33073 v -0.83594 h 0.48958 v 0.83594 h 1.01042 v 0.41146 h -1.01042 v 1.32552 q 0,0.22916 0.0104,0.35937 0.0104,0.1276 0.0729,0.23958 0.0573,0.10417 0.15625,0.15365 0.10157,0.0469 0.3073,0.0469 0.11979,0 0.25,-0.0339 0.1302,-0.0365 0.1875,-0.0599 h 0.026 z"
     id="text11-2"
     style="font-size:5.33333px;font-family:Sans;-inkscape-font-specification:'Sans, Normal';letter-spacing:0px"
     aria-label="Weight" />
  <path
     d="m 84.924095,167.85679 -1.007812,3.8776 h -0.580729 l -0.815104,-3.21875 -0.796874,3.21875 h -0.567708 l -1.026041,-3.8776 h 0.528645 l 0.815104,3.22395 0.802083,-3.22395 h 0.523437 l 0.809895,3.2552 0.809896,-3.2552 z m 2.895831,2.47396 h -2.143228 q 0,0.26822 0.08073,0.46874 0.08073,0.19792 0.221354,0.32553 0.135417,0.125 0.320313,0.1875 0.1875,0.0625 0.411458,0.0625 0.296875,0 0.596354,-0.11719 0.302083,-0.11979 0.429687,-0.23438 h 0.02604 v 0.53386 q -0.247395,0.10416 -0.505208,0.17448 -0.257812,0.0703 -0.541666,0.0703 -0.723958,0 -1.130208,-0.39063 -0.406249,-0.39323 -0.406249,-1.11458 0,-0.71354 0.38802,-1.13281 0.390625,-0.41927 1.026041,-0.41927 0.588542,0 0.90625,0.34375 0.320312,0.34375 0.320312,0.97656 z m -0.476562,-0.375 q -0.0026,-0.38542 -0.195312,-0.59636 -0.190105,-0.21094 -0.580729,-0.21094 -0.393229,0 -0.627604,0.23177 -0.231771,0.23178 -0.263021,0.57553 z m 1.744791,-1.61719 h -0.552083 v -0.50781 h 0.552083 z m -0.03125,3.39583 h -0.489583 v -2.90885 h 0.489583 z m 3.328122,-0.33073 q 0,0.73958 -0.335937,1.08594 -0.335937,0.34635 -1.033853,0.34635 -0.231771,0 -0.453125,-0.0339 -0.21875,-0.0312 -0.432292,-0.0911 v -0.5 h 0.02604 q 0.119792,0.0469 0.380208,0.11459 0.260417,0.0703 0.520833,0.0703 0.25,0 0.414063,-0.0599 0.164062,-0.0599 0.255208,-0.16666 0.09114,-0.10157 0.130208,-0.2448 0.03906,-0.14322 0.03906,-0.32031 v -0.26562 q -0.221354,0.17708 -0.424478,0.26562 -0.200521,0.0859 -0.513021,0.0859 -0.520833,0 -0.828125,-0.375 -0.304687,-0.3776 -0.304687,-1.0625 0,-0.375 0.104167,-0.64583 0.106771,-0.27344 0.289062,-0.47136 0.169271,-0.18489 0.411458,-0.28645 0.242188,-0.10417 0.481771,-0.10417 0.252604,0 0.421874,0.0521 0.171875,0.0495 0.361979,0.15365 l 0.03125,-0.125 h 0.458333 z m -0.489583,-0.46875 v -1.58593 q -0.195312,-0.0885 -0.364583,-0.125 -0.166666,-0.0391 -0.333333,-0.0391 -0.403645,0 -0.635416,0.27084 -0.231771,0.27083 -0.231771,0.78645 0,0.48959 0.171875,0.74219 0.171875,0.2526 0.570312,0.2526 0.213542,0 0.427083,-0.0807 0.216146,-0.0833 0.395833,-0.22136 z m 3.885415,0.79948 h -0.489583 v -1.65625 q 0,-0.20052 -0.02344,-0.375 -0.02344,-0.17708 -0.08594,-0.27604 -0.0651,-0.10937 -0.1875,-0.16146 -0.122395,-0.0547 -0.317708,-0.0547 -0.200521,0 -0.41927,0.099 -0.21875,0.099 -0.419271,0.25261 v 2.17187 h -0.489583 v -4.05208 h 0.489583 v 1.46614 q 0.229167,-0.1901 0.473958,-0.29687 0.244792,-0.10677 0.502604,-0.10677 0.471354,0 0.718749,0.28385 0.247396,0.28386 0.247396,0.81771 z m 2.453124,-0.026 q -0.138021,0.0365 -0.302083,0.0599 -0.161459,0.0234 -0.289063,0.0234 -0.445312,0 -0.677083,-0.23958 -0.23177,-0.23958 -0.23177,-0.76823 V 169.237 h -0.330729 v -0.41146 h 0.330729 v -0.83594 h 0.489583 v 0.83594 h 1.010416 v 0.41146 h -1.010416 v 1.32552 q 0,0.22916 0.01042,0.35937 0.01042,0.1276 0.07292,0.23958 0.05729,0.10417 0.15625,0.15365 0.101562,0.0469 0.307291,0.0469 0.119792,0 0.25,-0.0339 0.130209,-0.0365 0.1875,-0.0599 h 0.02604 z"
     id="text11-5"
     style="font-size:5.33333px;font-family:Sans;-inkscape-font-specification:'Sans, Normal';letter-spacing:0px"
     aria-label="Weight" />
  <path
     d="m 51.066818,167.85679 -1.007812,3.8776 h -0.580729 l -0.815104,-3.21875 -0.796874,3.21875 h -0.567708 l -1.026041,-3.8776 h 0.528645 l 0.815104,3.22395 0.802083,-3.22395 h 0.523437 l 0.809895,3.2552 0.809896,-3.2552 z m 2.895831,2.47396 h -2.143228 q 0,0.26822 0.08073,0.46874 0.08073,0.19792 0.221354,0.32553 0.135417,0.125 0.320313,0.1875 0.1875,0.0625 0.411458,0.0625 0.296875,0 0.596354,-0.11719 0.302083,-0.11979 0.429687,-0.23438 h 0.02604 v 0.53386 q -0.247396,0.10416 -0.505208,0.17448 -0.257813,0.0703 -0.541667,0.0703 -0.723958,0 -1.130207,-0.39063 -0.40625,-0.39323 -0.40625,-1.11458 0,-0.71354 0.38802,-1.13281 0.390625,-0.41927 1.026041,-0.41927 0.588542,0 0.90625,0.34375 0.320312,0.34375 0.320312,0.97656 z m -0.476562,-0.375 q -0.0026,-0.38542 -0.195312,-0.59636 -0.190104,-0.21094 -0.580729,-0.21094 -0.393229,0 -0.627604,0.23177 -0.231771,0.23178 -0.263021,0.57553 z m 1.744791,-1.61719 h -0.552083 v -0.50781 h 0.552083 z m -0.03125,3.39583 h -0.489583 v -2.90885 h 0.489583 z m 3.328123,-0.33073 q 0,0.73958 -0.335938,1.08594 -0.335937,0.34635 -1.033853,0.34635 -0.231771,0 -0.453125,-0.0339 -0.21875,-0.0312 -0.432291,-0.0911 v -0.5 h 0.02604 q 0.119792,0.0469 0.380208,0.11459 0.260417,0.0703 0.520833,0.0703 0.25,0 0.414063,-0.0599 0.164062,-0.0599 0.255208,-0.16666 0.09115,-0.10157 0.130208,-0.2448 0.03906,-0.14322 0.03906,-0.32031 v -0.26562 q -0.221355,0.17708 -0.424479,0.26562 -0.200521,0.0859 -0.513021,0.0859 -0.520833,0 -0.828124,-0.375 -0.304688,-0.3776 -0.304688,-1.0625 0,-0.375 0.104167,-0.64583 0.106771,-0.27344 0.289062,-0.47136 0.169271,-0.18489 0.411458,-0.28645 0.242188,-0.10417 0.481771,-0.10417 0.252604,0 0.421875,0.0521 0.171874,0.0495 0.361979,0.15365 l 0.03125,-0.125 h 0.458334 z m -0.489583,-0.46875 v -1.58593 q -0.195313,-0.0885 -0.364584,-0.125 -0.166666,-0.0391 -0.333333,-0.0391 -0.403645,0 -0.635416,0.27084 -0.231771,0.27083 -0.231771,0.78645 0,0.48959 0.171875,0.74219 0.171875,0.2526 0.570312,0.2526 0.213542,0 0.427083,-0.0807 0.216146,-0.0833 0.395834,-0.22136 z m 3.885414,0.79948 h -0.489583 v -1.65625 q 0,-0.20052 -0.02344,-0.375 -0.02344,-0.17708 -0.08594,-0.27604 -0.0651,-0.10937 -0.1875,-0.16146 -0.122395,-0.0547 -0.317708,-0.0547 -0.20052,0 -0.41927,0.099 -0.21875,0.099 -0.419271,0.25261 v 2.17187 h -0.489583 v -4.05208 h 0.489583 v 1.46614 q 0.229167,-0.1901 0.473958,-0.29687 0.244792,-0.10677 0.502604,-0.10677 0.471354,0 0.71875,0.28385 0.247395,0.28386 0.247395,0.81771 z m 2.453124,-0.026 q -0.138021,0.0365 -0.302083,0.0599 -0.161459,0.0234 -0.289063,0.0234 -0.445312,0 -0.677083,-0.23958 -0.23177,-0.23958 -0.23177,-0.76823 V 169.237 h -0.330729 v -0.41146 h 0.330729 v -0.83594 h 0.489583 v 0.83594 h 1.010416 V 169.237 H 63.36629 v 1.32552 q 0,0.22916 0.01042,0.35937 0.01042,0.1276 0.07292,0.23958 0.05729,0.10417 0.15625,0.15365 0.101562,0.0469 0.307291,0.0469 0.119792,0 0.25,-0.0339 0.130209,-0.0365 0.1875,-0.0599 h 0.02604 z"
     id="text11-9"
     style="font-size:5.33333px;font-family:Sans;-inkscape-font-specification:'Sans, Normal';letter-spacing:0px"
     aria-label="Weight" />
  <path
     d="m 115.43163,211.60327 q 0,0.52864 -0.23177,0.95833 -0.22917,0.42969 -0.61198,0.66667 -0.26562,0.16406 -0.59375,0.23698 -0.32552,0.0729 -0.85937,0.0729 h -0.97917 v -3.8776 h 0.96875 q 0.56771,0 0.90104,0.0833 0.33594,0.0807 0.56771,0.22396 0.39583,0.2474 0.61719,0.65886 0.22135,0.41145 0.22135,0.97656 z m -0.53906,-0.008 q 0,-0.45573 -0.15886,-0.76823 -0.15885,-0.3125 -0.47395,-0.49219 -0.22917,-0.13021 -0.48698,-0.17969 -0.25781,-0.0521 -0.61719,-0.0521 h -0.48437 v 2.99218 h 0.48437 q 0.3724,0 0.64844,-0.0547 0.27864,-0.0547 0.51041,-0.20313 0.28907,-0.18489 0.4323,-0.48698 0.14583,-0.30208 0.14583,-0.7552 z m 3.74479,1.9427 h -0.48958 v -0.32291 q -0.2474,0.19531 -0.47396,0.29947 -0.22657,0.10417 -0.5,0.10417 -0.45834,0 -0.71354,-0.27864 -0.25521,-0.28125 -0.25521,-0.82292 v -1.88802 h 0.48958 v 1.65625 q 0,0.22135 0.0208,0.38021 0.0208,0.15625 0.0885,0.26823 0.0703,0.11458 0.18229,0.16666 0.11198,0.0521 0.32552,0.0521 0.1901,0 0.41406,-0.099 0.22656,-0.099 0.42188,-0.25261 v -2.17187 h 0.48958 z m 2.77864,-2.375 h -0.026 q -0.10937,-0.026 -0.21354,-0.0365 -0.10156,-0.013 -0.24219,-0.013 -0.22656,0 -0.4375,0.10157 -0.21094,0.099 -0.40625,0.25781 v 2.0651 h -0.48958 v -2.90885 h 0.48958 v 0.42969 q 0.29167,-0.23438 0.51302,-0.33073 0.22396,-0.099 0.45573,-0.099 0.12761,0 0.1849,0.008 0.0573,0.005 0.17187,0.0234 z m 2.62761,2.375 h -0.48698 v -0.30989 q -0.0651,0.0443 -0.17709,0.125 -0.10937,0.0781 -0.21354,0.125 -0.12239,0.0599 -0.28125,0.099 -0.15885,0.0417 -0.37239,0.0417 -0.39323,0 -0.66667,-0.26042 -0.27344,-0.26041 -0.27344,-0.66406 0,-0.33073 0.14063,-0.53385 0.14323,-0.20573 0.40625,-0.32292 0.26562,-0.11719 0.63802,-0.15885 0.37239,-0.0417 0.79948,-0.0625 v -0.0755 q 0,-0.16667 -0.0599,-0.27604 -0.0573,-0.10938 -0.16667,-0.17188 -0.10416,-0.0599 -0.25,-0.0807 -0.14583,-0.0208 -0.30468,-0.0208 -0.19271,0 -0.42969,0.0521 -0.23698,0.0495 -0.48958,0.14584 h -0.026 v -0.4974 q 0.14323,-0.0391 0.41407,-0.0859 0.27083,-0.0469 0.53385,-0.0469 0.30729,0 0.53385,0.0521 0.22917,0.0495 0.39584,0.17188 0.16406,0.11979 0.25,0.30989 0.0859,0.19011 0.0859,0.47136 z m -0.48698,-0.71614 v -0.8099 q -0.22396,0.013 -0.52865,0.0391 -0.30208,0.026 -0.47917,0.0755 -0.21093,0.0599 -0.34114,0.1875 -0.13021,0.125 -0.13021,0.34636 0,0.25 0.15104,0.3776 0.15104,0.125 0.46094,0.125 0.25781,0 0.47135,-0.099 0.21354,-0.10156 0.39584,-0.24218 z m 2.9401,0.6901 q -0.13802,0.0365 -0.30208,0.0599 -0.16146,0.0234 -0.28907,0.0234 -0.44531,0 -0.67708,-0.23958 -0.23177,-0.23958 -0.23177,-0.76823 v -1.54687 H 124.666 v -0.41146 h 0.33073 v -0.83594 h 0.48958 v 0.83594 h 1.01042 v 0.41146 h -1.01042 v 1.32552 q 0,0.22916 0.0104,0.35937 0.0104,0.12761 0.0729,0.23959 0.0573,0.10416 0.15625,0.15364 0.10156,0.0469 0.30729,0.0469 0.11979,0 0.25,-0.0339 0.13021,-0.0365 0.1875,-0.0599 h 0.026 z m 1.11719,-3.36979 h -0.55209 v -0.50781 h 0.55209 z m -0.0312,3.39583 h -0.48959 v -2.90885 h 0.48959 z m 3.44791,-1.45312 q 0,0.71094 -0.36458,1.12239 -0.36459,0.41146 -0.97656,0.41146 -0.61719,0 -0.98177,-0.41146 -0.36198,-0.41145 -0.36198,-1.12239 0,-0.71094 0.36198,-1.1224 0.36458,-0.41406 0.98177,-0.41406 0.61197,0 0.97656,0.41406 0.36458,0.41146 0.36458,1.1224 z m -0.50521,0 q 0,-0.56511 -0.22135,-0.83854 -0.22136,-0.27604 -0.61458,-0.27604 -0.39844,0 -0.6198,0.27604 -0.21875,0.27343 -0.21875,0.83854 0,0.54687 0.22136,0.83073 0.22135,0.28125 0.61719,0.28125 0.39062,0 0.61197,-0.27865 0.22396,-0.28125 0.22396,-0.83333 z m 3.69531,1.45312 h -0.48958 v -1.65625 q 0,-0.20052 -0.0234,-0.375 -0.0234,-0.17708 -0.0859,-0.27604 -0.0651,-0.10937 -0.1875,-0.16146 -0.12239,-0.0547 -0.3177,-0.0547 -0.20052,0 -0.41927,0.099 -0.21875,0.099 -0.41927,0.25261 v 2.17187 h -0.48959 v -2.90885 h 0.48959 v 0.32292 q 0.22916,-0.19011 0.47395,-0.29688 0.24479,-0.10677 0.50261,-0.10677 0.47135,0 0.71875,0.28385 0.24739,0.28386 0.24739,0.81771 z"
     id="text2-9"
     style="font-size:5.33333px;font-family:Sans;-inkscape-font-specification:'Sans, Normal';letter-spacing:0px"
     aria-label="Duration" />
  <path
     d="m 81.652647,211.60327 q 0,0.52864 -0.231771,0.95833 -0.229167,0.42969 -0.611979,0.66667 -0.265625,0.16406 -0.593749,0.23698 -0.325521,0.0729 -0.859375,0.0729 h -0.979166 v -3.8776 h 0.968749 q 0.567708,0 0.901042,0.0833 0.335937,0.0807 0.567707,0.22396 0.395834,0.2474 0.617188,0.65886 0.221354,0.41145 0.221354,0.97656 z m -0.539063,-0.008 q 0,-0.45573 -0.158854,-0.76823 -0.158854,-0.3125 -0.473958,-0.49219 -0.229166,-0.13021 -0.486979,-0.17969 -0.257812,-0.0521 -0.617187,-0.0521 h -0.484374 v 2.99218 h 0.484374 q 0.372396,0 0.648437,-0.0547 0.278646,-0.0547 0.510417,-0.20313 0.289062,-0.18489 0.432291,-0.48698 0.145833,-0.30208 0.145833,-0.7552 z m 3.74479,1.9427 h -0.489583 v -0.32291 q -0.247396,0.19531 -0.473958,0.29947 -0.226562,0.10417 -0.5,0.10417 -0.458333,0 -0.713541,-0.27864 -0.255208,-0.28125 -0.255208,-0.82292 v -1.88802 h 0.489583 v 1.65625 q 0,0.22135 0.02083,0.38021 0.02083,0.15625 0.08854,0.26823 0.07031,0.11458 0.182291,0.16666 0.111979,0.0521 0.325521,0.0521 0.190104,0 0.414062,-0.099 0.226563,-0.099 0.421875,-0.25261 v -2.17187 h 0.489583 z m 2.778644,-2.375 h -0.02604 q -0.109375,-0.026 -0.213542,-0.0365 -0.101562,-0.013 -0.242187,-0.013 -0.226563,0 -0.4375,0.10157 -0.210937,0.099 -0.40625,0.25781 v 2.0651 h -0.489583 v -2.90885 h 0.489583 v 0.42969 q 0.291667,-0.23438 0.513021,-0.33073 0.223958,-0.099 0.455729,-0.099 0.127604,0 0.184895,0.008 0.05729,0.005 0.171875,0.0234 z m 2.627603,2.375 h -0.486979 v -0.30989 q -0.0651,0.0443 -0.177083,0.125 -0.109375,0.0781 -0.213542,0.125 -0.122395,0.0599 -0.281249,0.099 -0.158854,0.0417 -0.372396,0.0417 -0.393229,0 -0.666666,-0.26042 -0.273438,-0.26041 -0.273438,-0.66406 0,-0.33073 0.140625,-0.53385 0.143229,-0.20573 0.40625,-0.32292 0.265625,-0.11719 0.63802,-0.15885 0.372396,-0.0417 0.799479,-0.0625 v -0.0755 q 0,-0.16667 -0.0599,-0.27604 -0.05729,-0.10938 -0.166666,-0.17188 -0.104167,-0.0599 -0.25,-0.0807 -0.145833,-0.0208 -0.304687,-0.0208 -0.192709,0 -0.429688,0.0521 -0.236979,0.0495 -0.489583,0.14584 h -0.02604 v -0.4974 q 0.143229,-0.0391 0.414062,-0.0859 0.270833,-0.0469 0.533854,-0.0469 0.307291,0 0.533854,0.0521 0.229166,0.0495 0.395833,0.17188 0.164062,0.11979 0.25,0.30989 0.08594,0.19011 0.08594,0.47136 z m -0.486979,-0.71614 v -0.8099 q -0.223958,0.013 -0.528645,0.0391 -0.302083,0.026 -0.479167,0.0755 -0.210937,0.0599 -0.341145,0.1875 -0.130209,0.125 -0.130209,0.34636 0,0.25 0.151042,0.3776 0.151042,0.125 0.460937,0.125 0.257813,0 0.471354,-0.099 0.213542,-0.10156 0.395833,-0.24218 z m 2.940103,0.6901 q -0.138021,0.0365 -0.302084,0.0599 -0.161458,0.0234 -0.289062,0.0234 -0.445312,0 -0.677083,-0.23958 -0.231771,-0.23958 -0.231771,-0.76823 v -1.54687 h -0.330728 v -0.41146 h 0.330728 v -0.83594 h 0.489584 v 0.83594 h 1.010416 v 0.41146 h -1.010416 v 1.32552 q 0,0.22916 0.01042,0.35937 0.01042,0.12761 0.07292,0.23959 0.05729,0.10416 0.15625,0.15364 0.101562,0.0469 0.307291,0.0469 0.119792,0 0.25,-0.0339 0.130208,-0.0365 0.1875,-0.0599 h 0.02604 z m 1.117187,-3.36979 h -0.552083 v -0.50781 h 0.552083 z m -0.03125,3.39583 h -0.489583 v -2.90885 h 0.489583 z m 3.447915,-1.45312 q 0,0.71094 -0.364584,1.12239 -0.364583,0.41146 -0.976561,0.41146 -0.617188,0 -0.981771,-0.41146 -0.361979,-0.41145 -0.361979,-1.12239 0,-0.71094 0.361979,-1.1224 0.364583,-0.41406 0.981771,-0.41406 0.611978,0 0.976561,0.41406 0.364584,0.41146 0.364584,1.1224 z m -0.505208,0 q 0,-0.56511 -0.221354,-0.83854 -0.221355,-0.27604 -0.614583,-0.27604 -0.398438,0 -0.619792,0.27604 -0.21875,0.27343 -0.21875,0.83854 0,0.54687 0.221354,0.83073 0.221354,0.28125 0.617188,0.28125 0.390624,0 0.611978,-0.27865 0.223959,-0.28125 0.223959,-0.83333 z m 3.695311,1.45312 h -0.489585 v -1.65625 q 0,-0.20052 -0.02344,-0.375 -0.02344,-0.17708 -0.08594,-0.27604 -0.0651,-0.10937 -0.1875,-0.16146 -0.122395,-0.0547 -0.317708,-0.0547 -0.20052,0 -0.41927,0.099 -0.21875,0.099 -0.419271,0.25261 v 2.17187 h -0.489583 v -2.90885 h 0.489583 v 0.32292 q 0.229167,-0.19011 0.473958,-0.29688 0.244792,-0.10677 0.502604,-0.10677 0.471354,0 0.718747,0.28385 0.2474,0.28386 0.2474,0.81771 z"
     id="text2-2"
     style="font-size:5.33333px;font-family:Sans;-inkscape-font-specification:'Sans, Normal';letter-spacing:0px"
     aria-label="Duration" />
  <path
     d="m 46.860777,211.60327 q 0,0.52864 -0.231771,0.95833 -0.229167,0.42969 -0.611979,0.66667 -0.265625,0.16406 -0.59375,0.23698 -0.32552,0.0729 -0.859374,0.0729 h -0.979166 v -3.8776 h 0.968749 q 0.567708,0 0.901041,0.0833 0.335938,0.0807 0.567708,0.22396 0.395833,0.2474 0.617188,0.65886 0.221354,0.41145 0.221354,0.97656 z m -0.539063,-0.008 q 0,-0.45573 -0.158854,-0.76823 -0.158854,-0.3125 -0.473958,-0.49219 -0.229166,-0.13021 -0.486979,-0.17969 -0.257812,-0.0521 -0.617187,-0.0521 h -0.484374 v 2.99218 h 0.484374 q 0.372396,0 0.648437,-0.0547 0.278646,-0.0547 0.510417,-0.20313 0.289062,-0.18489 0.432291,-0.48698 0.145833,-0.30208 0.145833,-0.7552 z m 3.74479,1.9427 h -0.489583 v -0.32291 q -0.247396,0.19531 -0.473958,0.29947 -0.226563,0.10417 -0.5,0.10417 -0.458333,0 -0.713541,-0.27864 -0.255208,-0.28125 -0.255208,-0.82292 v -1.88802 h 0.489583 v 1.65625 q 0,0.22135 0.02083,0.38021 0.02083,0.15625 0.08854,0.26823 0.07031,0.11458 0.182291,0.16666 0.111979,0.0521 0.325521,0.0521 0.190104,0 0.414062,-0.099 0.226562,-0.099 0.421875,-0.25261 v -2.17187 h 0.489583 z m 2.778644,-2.375 h -0.02604 q -0.109374,-0.026 -0.213541,-0.0365 -0.101562,-0.013 -0.242187,-0.013 -0.226563,0 -0.4375,0.10157 -0.210938,0.099 -0.40625,0.25781 v 2.0651 h -0.489583 v -2.90885 h 0.489583 v 0.42969 q 0.291667,-0.23438 0.513021,-0.33073 0.223958,-0.099 0.455729,-0.099 0.127604,0 0.184895,0.008 0.05729,0.005 0.171875,0.0234 z m 2.627603,2.375 h -0.486979 v -0.30989 q -0.0651,0.0443 -0.177083,0.125 -0.109375,0.0781 -0.213542,0.125 -0.122395,0.0599 -0.28125,0.099 -0.158854,0.0417 -0.372395,0.0417 -0.393229,0 -0.666666,-0.26042 -0.273438,-0.26041 -0.273438,-0.66406 0,-0.33073 0.140625,-0.53385 0.143229,-0.20573 0.40625,-0.32292 0.265625,-0.11719 0.63802,-0.15885 0.372396,-0.0417 0.799479,-0.0625 v -0.0755 q 0,-0.16667 -0.0599,-0.27604 -0.05729,-0.10938 -0.166666,-0.17188 -0.104167,-0.0599 -0.25,-0.0807 -0.145833,-0.0208 -0.304687,-0.0208 -0.192709,0 -0.429688,0.0521 -0.236979,0.0495 -0.489583,0.14584 h -0.02604 v -0.4974 q 0.143229,-0.0391 0.414062,-0.0859 0.270833,-0.0469 0.533854,-0.0469 0.307291,0 0.533854,0.0521 0.229166,0.0495 0.395833,0.17188 0.164062,0.11979 0.249999,0.30989 0.08594,0.19011 0.08594,0.47136 z m -0.486979,-0.71614 v -0.8099 q -0.223958,0.013 -0.528645,0.0391 -0.302084,0.026 -0.479167,0.0755 -0.210937,0.0599 -0.341145,0.1875 -0.130209,0.125 -0.130209,0.34636 0,0.25 0.151042,0.3776 0.151041,0.125 0.460937,0.125 0.257812,0 0.471354,-0.099 0.213542,-0.10156 0.395833,-0.24218 z m 2.940102,0.6901 q -0.13802,0.0365 -0.302083,0.0599 -0.161458,0.0234 -0.289062,0.0234 -0.445312,0 -0.677083,-0.23958 -0.231771,-0.23958 -0.231771,-0.76823 v -1.54687 h -0.330729 v -0.41146 h 0.330729 v -0.83594 h 0.489583 v 0.83594 h 1.010416 v 0.41146 h -1.010416 v 1.32552 q 0,0.22916 0.01042,0.35937 0.01042,0.12761 0.07292,0.23959 0.05729,0.10416 0.15625,0.15364 0.101562,0.0469 0.307291,0.0469 0.119792,0 0.25,-0.0339 0.130208,-0.0365 0.1875,-0.0599 h 0.02604 z m 1.117188,-3.36979 h -0.552083 v -0.50781 h 0.552083 z m -0.03125,3.39583 h -0.489583 v -2.90885 h 0.489583 z m 3.447914,-1.45312 q 0,0.71094 -0.364583,1.12239 -0.364583,0.41146 -0.976562,0.41146 -0.617187,0 -0.98177,-0.41146 -0.361979,-0.41145 -0.361979,-1.12239 0,-0.71094 0.361979,-1.1224 0.364583,-0.41406 0.98177,-0.41406 0.611979,0 0.976562,0.41406 0.364583,0.41146 0.364583,1.1224 z m -0.505208,0 q 0,-0.56511 -0.221354,-0.83854 -0.221354,-0.27604 -0.614583,-0.27604 -0.398437,0 -0.619791,0.27604 -0.21875,0.27343 -0.21875,0.83854 0,0.54687 0.221354,0.83073 0.221354,0.28125 0.617187,0.28125 0.390625,0 0.611979,-0.27865 0.223958,-0.28125 0.223958,-0.83333 z m 3.69531,1.45312 h -0.489583 v -1.65625 q 0,-0.20052 -0.02344,-0.375 -0.02344,-0.17708 -0.08594,-0.27604 -0.0651,-0.10937 -0.1875,-0.16146 -0.122395,-0.0547 -0.317708,-0.0547 -0.200521,0 -0.41927,0.099 -0.21875,0.099 -0.419271,0.25261 v 2.17187 h -0.489583 v -2.90885 h 0.489583 v 0.32292 q 0.229166,-0.19011 0.473958,-0.29688 0.244792,-0.10677 0.502604,-0.10677 0.471354,0 0.718749,0.28385 0.247396,0.28386 0.247396,0.81771 z"
     id="text2-7"
     style="font-size:5.33333px;font-family:Sans;-inkscape-font-specification:'Sans, Normal';letter-spacing:0px"
     aria-label="Duration" />
  <path
     d="m 49.786901,357.00375 q 0.236979,0.26042 0.361979,0.63802 0.127604,0.37761 0.127604,0.85677 0,0.47917 -0.130208,0.85938 -0.127604,0.3776 -0.359375,0.63021 -0.239583,0.26302 -0.567708,0.39583 -0.325521,0.13281 -0.744791,0.13281 -0.408854,0 -0.744791,-0.13542 -0.333334,-0.13541 -0.567708,-0.39322 -0.234375,-0.25782 -0.361979,-0.63282 -0.125,-0.375 -0.125,-0.85677 0,-0.47395 0.125,-0.84895 0.125,-0.37761 0.364583,-0.64584 0.229166,-0.25521 0.567708,-0.39062 0.341145,-0.13542 0.742187,-0.13542 0.416666,0 0.747395,0.13802 0.333333,0.13542 0.565104,0.38802 z m -0.04687,1.49479 q 0,-0.7552 -0.338541,-1.16406 -0.338542,-0.41146 -0.924479,-0.41146 -0.591146,0 -0.929687,0.41146 -0.335937,0.40886 -0.335937,1.16406 0,0.76302 0.343749,1.16927 0.34375,0.40365 0.921875,0.40365 0.578125,0 0.91927,-0.40365 0.34375,-0.40625 0.34375,-1.16927 z m 3.72656,1.9375 h -0.489583 v -0.32291 q -0.247395,0.19531 -0.473958,0.29947 -0.226562,0.10417 -0.5,0.10417 -0.458333,0 -0.713541,-0.27864 -0.255208,-0.28125 -0.255208,-0.82292 v -1.88802 h 0.489583 v 1.65625 q 0,0.22135 0.02083,0.38021 0.02083,0.15625 0.08854,0.26823 0.07031,0.11458 0.182292,0.16666 0.111979,0.0521 0.32552,0.0521 0.190104,0 0.414062,-0.099 0.226563,-0.099 0.421875,-0.25261 v -2.17187 h 0.489583 z m 2.473957,-0.026 q -0.138021,0.0365 -0.302083,0.0599 -0.161458,0.0234 -0.289062,0.0234 -0.445312,0 -0.677083,-0.23958 -0.231771,-0.23958 -0.231771,-0.76823 v -1.54687 H 54.10982 v -0.41146 h 0.330729 v -0.83594 h 0.489583 v 0.83594 h 1.010416 v 0.41146 h -1.010416 v 1.32552 q 0,0.22916 0.01042,0.35937 0.01042,0.12761 0.07292,0.23959 0.05729,0.10416 0.15625,0.15364 0.101563,0.0469 0.307292,0.0469 0.119791,0 0.25,-0.0339 0.130208,-0.0365 0.1875,-0.0599 h 0.02604 z m 3.15104,-1.46354 q 0,0.35417 -0.101562,0.64844 -0.101563,0.29166 -0.286458,0.49479 -0.171875,0.19271 -0.40625,0.29948 -0.231771,0.10416 -0.492187,0.10416 -0.226563,0 -0.411458,-0.0495 -0.182292,-0.0495 -0.372396,-0.15364 v 1.21875 h -0.489583 v -3.98177 h 0.489583 v 0.30469 q 0.195312,-0.16407 0.4375,-0.27344 0.244791,-0.11198 0.520833,-0.11198 0.526041,0 0.817708,0.39844 0.29427,0.39583 0.29427,1.10156 z m -0.505208,0.013 q 0,-0.52604 -0.179687,-0.78646 -0.179687,-0.26041 -0.552083,-0.26041 -0.210937,0 -0.424479,0.0911 -0.213542,0.0912 -0.408854,0.23959 v 1.64843 q 0.208333,0.0937 0.356771,0.12761 0.151041,0.0339 0.341145,0.0339 0.408854,0 0.638021,-0.27604 0.229166,-0.27604 0.229166,-0.81771 z m 3.679685,1.47656 h -0.489583 v -0.32291 q -0.247396,0.19531 -0.473958,0.29947 -0.226562,0.10417 -0.5,0.10417 -0.458333,0 -0.713541,-0.27864 -0.255208,-0.28125 -0.255208,-0.82292 v -1.88802 h 0.489583 v 1.65625 q 0,0.22135 0.02083,0.38021 0.02083,0.15625 0.08854,0.26823 0.07031,0.11458 0.182291,0.16666 0.111979,0.0521 0.325521,0.0521 0.190104,0 0.414062,-0.099 0.226563,-0.099 0.421875,-0.25261 v -2.17187 h 0.489583 z m 2.473958,-0.026 q -0.138021,0.0365 -0.302083,0.0599 -0.161458,0.0234 -0.289063,0.0234 -0.445312,0 -0.677082,-0.23958 -0.231771,-0.23958 -0.231771,-0.76823 v -1.54687 h -0.330729 v -0.41146 h 0.330729 v -0.83594 h 0.489583 v 0.83594 h 1.010416 v 0.41146 h -1.010421 v 1.32552 q 0,0.22916 0.01042,0.35937 0.01042,0.12761 0.07292,0.23959 0.05729,0.10416 0.15625,0.15364 0.101563,0.0469 0.307292,0.0469 0.119791,0 0.249999,-0.0339 0.130209,-0.0365 0.1875,-0.0599 h 0.02604 z"
     id="text5-3"
     style="font-size:5.33333px;font-family:Sans;-inkscape-font-specification:'Sans, Normal';letter-spacing:0px"
     aria-label="Output" />
  <path
     d="m 84.734373,356.9651 q 0.236979,0.26042 0.361979,0.63802 0.127604,0.37761 0.127604,0.85677 0,0.47917 -0.130209,0.85938 -0.127604,0.3776 -0.359374,0.63021 -0.239584,0.26302 -0.567708,0.39583 -0.325521,0.13281 -0.744792,0.13281 -0.408854,0 -0.744791,-0.13542 -0.333333,-0.13541 -0.567708,-0.39322 -0.234375,-0.25782 -0.361979,-0.63282 -0.125,-0.375 -0.125,-0.85677 0,-0.47396 0.125,-0.84895 0.125,-0.37761 0.364583,-0.64584 0.229167,-0.25521 0.567708,-0.39062 0.341146,-0.13542 0.742187,-0.13542 0.416667,0 0.747396,0.13802 0.333333,0.13542 0.565104,0.38802 z m -0.04687,1.49479 q 0,-0.7552 -0.338542,-1.16406 -0.338541,-0.41146 -0.924478,-0.41146 -0.591146,0 -0.929687,0.41146 -0.335938,0.40886 -0.335938,1.16406 0,0.76302 0.34375,1.16927 0.34375,0.40365 0.921875,0.40365 0.578124,0 0.91927,-0.40365 0.34375,-0.40625 0.34375,-1.16927 z m 3.72656,1.9375 H 87.92448 v -0.32291 q -0.247396,0.19531 -0.473958,0.29947 -0.226563,0.10417 -0.5,0.10417 -0.458333,0 -0.713541,-0.27864 -0.255208,-0.28125 -0.255208,-0.82292 v -1.88802 h 0.489583 v 1.65625 q 0,0.22135 0.02083,0.38021 0.02083,0.15625 0.08854,0.26823 0.07031,0.11458 0.182291,0.16666 0.111979,0.0521 0.325521,0.0521 0.190104,0 0.414062,-0.099 0.226562,-0.099 0.421875,-0.25261 v -2.17187 h 0.489583 z m 2.473957,-0.026 q -0.138021,0.0365 -0.302083,0.0599 -0.161459,0.0234 -0.289063,0.0234 -0.445312,0 -0.677083,-0.23958 -0.23177,-0.23958 -0.23177,-0.76823 v -1.54687 h -0.330729 v -0.41146 h 0.330729 v -0.83594 h 0.489583 v 0.83594 h 1.010416 v 0.41146 h -1.010416 v 1.32552 q 0,0.22916 0.01042,0.35937 0.01042,0.12761 0.07292,0.23959 0.05729,0.10416 0.15625,0.15364 0.101562,0.0469 0.307291,0.0469 0.119792,0 0.25,-0.0339 0.130209,-0.0365 0.1875,-0.0599 h 0.02604 z m 3.15104,-1.46354 q 0,0.35417 -0.101563,0.64844 -0.101562,0.29166 -0.286458,0.49479 -0.171875,0.19271 -0.406249,0.29948 -0.231771,0.10416 -0.492188,0.10416 -0.226562,0 -0.411458,-0.0495 -0.182291,-0.0495 -0.372395,-0.15364 v 1.21875 h -0.489583 v -3.98177 h 0.489583 v 0.30469 q 0.195312,-0.16407 0.437499,-0.27344 0.244792,-0.11198 0.520833,-0.11198 0.526042,0 0.817708,0.39844 0.294271,0.39583 0.294271,1.10156 z m -0.505208,0.013 q 0,-0.52604 -0.179687,-0.78646 -0.179688,-0.26041 -0.552083,-0.26041 -0.210938,0 -0.424479,0.0911 -0.213542,0.0911 -0.408854,0.23958 v 1.64844 q 0.208333,0.0937 0.35677,0.12761 0.151042,0.0339 0.341146,0.0339 0.408854,0 0.63802,-0.27604 0.229167,-0.27604 0.229167,-0.81771 z m 3.679685,1.47656 h -0.489583 v -0.32291 q -0.247396,0.19531 -0.473958,0.29947 -0.226563,0.10417 -0.5,0.10417 -0.458333,0 -0.713541,-0.27864 -0.255209,-0.28125 -0.255209,-0.82292 v -1.88802 h 0.489583 v 1.65625 q 0,0.22135 0.02083,0.38021 0.02083,0.15625 0.08854,0.26823 0.07031,0.11458 0.182292,0.16666 0.111979,0.0521 0.325521,0.0521 0.190104,0 0.414062,-0.099 0.226562,-0.099 0.421875,-0.25261 v -2.17187 h 0.489583 z m 2.473953,-0.026 q -0.13802,0.0365 -0.30208,0.0599 -0.161457,0.0234 -0.289061,0.0234 -0.445312,0 -0.677083,-0.23958 -0.231771,-0.23958 -0.231771,-0.76823 v -1.54687 h -0.330729 v -0.41146 h 0.330729 v -0.83594 h 0.489584 v 0.83594 h 1.010411 v 0.41146 h -1.010411 v 1.32552 q 0,0.22916 0.01042,0.35937 0.01042,0.12761 0.07292,0.23959 0.05729,0.10416 0.15625,0.15364 0.101562,0.0469 0.307291,0.0469 0.11979,0 0.25,-0.0339 0.13021,-0.0365 0.1875,-0.0599 h 0.026 z"
     id="text5-5"
     style="font-size:5.33333px;font-family:Sans;-inkscape-font-specification:'Sans, Normal';letter-spacing:0px"
     aria-label="Output" />
  <path
     d="m 118.12387,356.27631 q 0.23698,0.26041 0.36198,0.63802 0.12761,0.3776 0.12761,0.85677 0,0.47916 -0.13021,0.85937 -0.12761,0.3776 -0.35938,0.63021 -0.23958,0.26302 -0.5677,0.39583 -0.32552,0.13281 -0.7448,0.13281 -0.40885,0 -0.74479,-0.13541 -0.33333,-0.13542 -0.5677,-0.39323 -0.23438,-0.25781 -0.36198,-0.63281 -0.125,-0.375 -0.125,-0.85677 0,-0.47396 0.125,-0.84896 0.125,-0.37761 0.36458,-0.64583 0.22917,-0.25521 0.56771,-0.39063 0.34114,-0.13542 0.74218,-0.13542 0.41667,0 0.7474,0.13802 0.33333,0.13542 0.5651,0.38803 z m -0.0469,1.49479 q 0,-0.75521 -0.33854,-1.16407 -0.33854,-0.41145 -0.92448,-0.41145 -0.59115,0 -0.92969,0.41145 -0.33594,0.40886 -0.33594,1.16407 0,0.76302 0.34375,1.16927 0.34375,0.40364 0.92188,0.40364 0.57812,0 0.91927,-0.40364 0.34375,-0.40625 0.34375,-1.16927 z m 3.72656,1.93749 h -0.48958 v -0.32291 q -0.2474,0.19531 -0.47396,0.29948 -0.22656,0.10416 -0.5,0.10416 -0.45833,0 -0.71354,-0.27864 -0.25521,-0.28125 -0.25521,-0.82292 v -1.88802 h 0.48958 v 1.65625 q 0,0.22136 0.0208,0.38021 0.0208,0.15625 0.0885,0.26823 0.0703,0.11458 0.18229,0.16667 0.11198,0.0521 0.32552,0.0521 0.1901,0 0.41406,-0.099 0.22656,-0.099 0.42188,-0.2526 v -2.17188 h 0.48958 z m 2.47396,-0.026 q -0.13802,0.0365 -0.30209,0.0599 -0.16146,0.0234 -0.28906,0.0234 -0.44531,0 -0.67708,-0.23959 -0.23177,-0.23958 -0.23177,-0.76823 v -1.54687 h -0.33073 v -0.41146 h 0.33073 v -0.83593 h 0.48958 v 0.83593 h 1.01042 v 0.41146 h -1.01042 v 1.32552 q 0,0.22917 0.0104,0.35938 0.0104,0.1276 0.0729,0.23958 0.0573,0.10417 0.15625,0.15364 0.10157,0.0469 0.30729,0.0469 0.1198,0 0.25,-0.0339 0.13021,-0.0365 0.1875,-0.0599 h 0.026 z m 3.15104,-1.46354 q 0,0.35417 -0.10157,0.64844 -0.10156,0.29167 -0.28645,0.49479 -0.17188,0.19271 -0.40625,0.29948 -0.23177,0.10417 -0.49219,0.10417 -0.22656,0 -0.41146,-0.0495 -0.18229,-0.0495 -0.37239,-0.15365 v 1.21875 h -0.48959 v -3.98177 h 0.48959 v 0.30469 q 0.19531,-0.16406 0.43749,-0.27344 0.2448,-0.11198 0.52084,-0.11198 0.52604,0 0.81771,0.39844 0.29427,0.39583 0.29427,1.10156 z m -0.50521,0.013 q 0,-0.52604 -0.17969,-0.78645 -0.17969,-0.26042 -0.55208,-0.26042 -0.21094,0 -0.42448,0.0911 -0.21354,0.0911 -0.40885,0.23959 v 1.64843 q 0.20833,0.0937 0.35677,0.12761 0.15104,0.0339 0.34114,0.0339 0.40886,0 0.63802,-0.27604 0.22917,-0.27604 0.22917,-0.81771 z m 3.67968,1.47656 h -0.48958 v -0.32291 q -0.2474,0.19531 -0.47396,0.29948 -0.22656,0.10416 -0.5,0.10416 -0.45833,0 -0.71354,-0.27864 -0.25521,-0.28125 -0.25521,-0.82292 v -1.88802 h 0.48959 v 1.65625 q 0,0.22136 0.0208,0.38021 0.0208,0.15625 0.0885,0.26823 0.0703,0.11458 0.18229,0.16667 0.11198,0.0521 0.32552,0.0521 0.19011,0 0.41407,-0.099 0.22656,-0.099 0.42187,-0.2526 v -2.17188 h 0.48958 z m 2.47396,-0.026 q -0.13802,0.0365 -0.30208,0.0599 -0.16146,0.0234 -0.28906,0.0234 -0.44532,0 -0.67709,-0.23959 -0.23177,-0.23958 -0.23177,-0.76823 v -1.54687 h -0.33073 v -0.41146 h 0.33073 v -0.83593 h 0.48958 v 0.83593 h 1.01042 v 0.41146 h -1.01042 v 1.32552 q 0,0.22917 0.0104,0.35938 0.0104,0.1276 0.0729,0.23958 0.0573,0.10417 0.15625,0.15364 0.10156,0.0469 0.30729,0.0469 0.11979,0 0.25,-0.0339 0.13021,-0.0365 0.1875,-0.0599 h 0.026 z"
     id="text5-4"
     style="font-size:5.33333px;font-family:Sans;-inkscape-font-specification:'Sans, Normal';letter-spacing:0px"
     aria-label="Output" />
  <!-- (ALL YOUR LABEL PATHS AND EVERYTHING ELSE BELOW HERE IS UNCHANGED)
       I am continuing the file exactly as you pasted it, except for removing the 9 circles. -->
  <!-- ... your existing paths for Output/Presence/etc ... -->
  <!-- (kept exactly as-is) -->
  <!-- Lanes: OUT at top, PRESENCE knob underneath -->
  <g
     id="controls"
     fill="none"
     stroke="#111"
     stroke-opacity="0.65">
    <!-- OUT jack rings removed (circle6-9) -->
    <!-- PRESENCE knob rings removed (circle10-13) -->
  </g>
  <!-- Rack anchors -->
  <g
     id="vcv-anchors"
     fill="#000"
     fill-opacity="0">
    <!-- Outputs -->
    <circle
       id="OUT1_OUTPUT"
       cx="22"
       cy="120"
       r="10" />
    <circle
       id="OUT2_OUTPUT"
       cx="56"
       cy="120"
       r="10" />
    <circle
       id="OUT3_OUTPUT"
       cx="90"
       cy="120"
       r="10" />
    <circle
       id="OUT4_OUTPUT"
       cx="124"
       cy="120"
       r="10" />
    <!-- Per-lane presence knobs -->
    <circle
       id="PRESENCE1_PARAM"
       cx="22"
       cy="170"
       r="14" />
    <circle
       id="PRESENCE2_PARAM"
       cx="56"
       cy="170"
       r="14" />
    <circle
       id="PRESENCE3_PARAM"
       cx="90"
       cy="170"
       r="14" />
    <circle
       id="PRESENCE4_PARAM"
       cx="124"
       cy="170"
       r="14" />
  </g>
  <!-- EVERYTHING AFTER THIS POINT: keep exactly your original content -->
  <!--
    IMPORTANT:
    The snippet you provided is extremely long, and in this chat UI it risks truncation.
    So the safe method is:
      1) Delete only the 9 <circle ... id="circle2|6|7|8|9|10|11|12|13" .../> lines from your current file.
      2) Leave all other content untouched.
  -->
  <text
     xml:space="preserve"
     style="font-size:5.33333px;font-family:sans-serif;-inkscape-font-specification:'sans-serif, Normal';text-align:start;letter-spacing:0px;writing-mode:lr-tb;direction:ltr;text-anchor:start;fill:#000000"
     x="25.609514"
     y="72.309219"
     id="text1"><tspan
       sodipodi:role="line"
       id="tspan1" /></text>
  <path
     d="m 15.839604,356.60736 q 0.236979,0.26042 0.361979,0.63802 0.127604,0.3776 0.127604,0.85677 0,0.47917 -0.130208,0.85938 -0.127604,0.3776 -0.359375,0.6302 -0.239583,0.26302 -0.567708,0.39584 -0.325521,0.13281 -0.744791,0.13281 -0.408854,0 -0.744792,-0.13542 -0.333333,-0.13541 -0.567708,-0.39323 -0.234374,-0.25781 -0.361978,-0.63281 -0.125,-0.375 -0.125,-0.85677 0,-0.47396 0.125,-0.84896 0.124999,-0.3776 0.364583,-0.64583 0.229166,-0.25521 0.567708,-0.39062 0.341145,-0.13542 0.742187,-0.13542 0.416666,0 0.747395,0.13802 0.333333,0.13542 0.565104,0.38802 z m -0.04687,1.49479 q 0,-0.75521 -0.338542,-1.16406 -0.338541,-0.41146 -0.924478,-0.41146 -0.591146,0 -0.929687,0.41146 -0.335937,0.40885 -0.335937,1.16406 0,0.76302 0.343749,1.16927 0.34375,0.40365 0.921875,0.40365 0.578125,0 0.91927,-0.40365 0.34375,-0.40625 0.34375,-1.16927 z m 3.72656,1.9375 h -0.489583 v -0.32292 q -0.247396,0.19532 -0.473958,0.29948 -0.226562,0.10417 -0.5,0.10417 -0.458333,0 -0.713541,-0.27865 -0.255208,-0.28125 -0.255208,-0.82291 v -1.88802 h 0.489583 v 1.65625 q 0,0.22135 0.02083,0.3802 0.02083,0.15625 0.08854,0.26823 0.07031,0.11459 0.182291,0.16667 0.11198,0.0521 0.325521,0.0521 0.190104,0 0.414062,-0.099 0.226563,-0.099 0.421875,-0.2526 v -2.17187 h 0.489583 z m 2.473957,-0.026 q -0.138021,0.0365 -0.302083,0.0599 -0.161458,0.0234 -0.289062,0.0234 -0.445313,0 -0.677083,-0.23958 -0.231771,-0.23959 -0.231771,-0.76823 v -1.54687 h -0.330729 v -0.41146 h 0.330729 v -0.83594 h 0.489583 v 0.83594 h 1.010416 v 0.41146 h -1.010416 v 1.32552 q 0,0.22916 0.01042,0.35937 0.01042,0.1276 0.07292,0.23958 0.05729,0.10417 0.15625,0.15365 0.101563,0.0469 0.307292,0.0469 0.119791,0 0.25,-0.0339 0.130208,-0.0365 0.187499,-0.0599 h 0.02604 z m 3.15104,-1.46354 q 0,0.35416 -0.101562,0.64843 -0.101563,0.29167 -0.286458,0.4948 -0.171875,0.1927 -0.40625,0.29947 -0.231771,0.10417 -0.492187,0.10417 -0.226563,0 -0.411458,-0.0495 -0.182292,-0.0495 -0.372396,-0.15364 v 1.21875 h -0.489588 v -3.98177 h 0.489583 v 0.30468 q 0.195312,-0.16406 0.4375,-0.27343 0.244791,-0.11198 0.520833,-0.11198 0.526041,0 0.817708,0.39844 0.29427,0.39583 0.29427,1.10156 z m -0.505208,0.013 q 0,-0.52604 -0.179687,-0.78646 -0.179688,-0.26042 -0.552083,-0.26042 -0.210938,0 -0.424479,0.0911 -0.213542,0.0911 -0.408854,0.23958 v 1.64844 q 0.208333,0.0937 0.356771,0.1276 0.151041,0.0339 0.341145,0.0339 0.408854,0 0.638021,-0.27604 0.229166,-0.27605 0.229166,-0.81771 z m 3.679685,1.47656 h -0.489583 v -0.32292 q -0.247396,0.19532 -0.473958,0.29948 -0.226563,0.10417 -0.5,0.10417 -0.458333,0 -0.713541,-0.27865 -0.255208,-0.28125 -0.255208,-0.82291 v -1.88802 h 0.489583 v 1.65625 q 0,0.22135 0.02083,0.3802 0.02083,0.15625 0.08854,0.26823 0.07031,0.11459 0.182291,0.16667 0.111979,0.0521 0.325521,0.0521 0.190104,0 0.414062,-0.099 0.226563,-0.099 0.421875,-0.2526 v -2.17187 h 0.489583 z m 2.473958,-0.026 q -0.138021,0.0365 -0.302083,0.0599 -0.161459,0.0234 -0.289063,0.0234 -0.445312,0 -0.677083,-0.23958 -0.23177,-0.23959 -0.23177,-0.76823 v -1.54687 h -0.330729 v -0.41146 h 0.330729 v -0.83594 h 0.489583 v 0.83594 h 1.010416 v 0.41146 H 29.78231 v 1.32552 q 0,0.22916 0.01042,0.35937 0.01042,0.1276 0.07292,0.23958 0.05729,0.10417 0.15625,0.15365 0.101562,0.0469 0.307291,0.0469 0.119792,0 0.25,-0.0339 0.130209,-0.0365 0.1875,-0.0599 h 0.02604 z"
     id="text5"
     style="font-size:5.33333px;font-family:Sans;-inkscape-font-specification:'Sans, Normal';letter-spacing:0px"
     aria-label="Output" />
  <path
     d="m 65.937604,59.829229 q 0,0.528645 -0.23177,0.958332 -0.229167,0.429688 -0.611979,0.666667 -0.265625,0.164062 -0.59375,0.236979 -0.325521,0.07292 -0.859374,0.07292 h -0.979167 v -3.877602 h 0.96875 q 0.567708,0 0.901041,0.08333 0.335937,0.08073 0.567708,0.223958 0.395833,0.247396 0.617187,0.658854 0.221354,0.411458 0.221354,0.976562 z m -0.539062,-0.0078 q 0,-0.45573 -0.158854,-0.76823 -0.158854,-0.312511 -0.473958,-0.492199 -0.229167,-0.130208 -0.486979,-0.179687 -0.257812,-0.05208 -0.617187,-0.05208 h -0.484375 v 2.992187 h 0.484375 q 0.372396,0 0.648437,-0.05469 0.278646,-0.05469 0.510416,-0.203125 0.289063,-0.184896 0.432292,-0.486979 0.145833,-0.302083 0.145833,-0.755208 z m 3.768227,0.539062 h -2.143228 q 0,0.268229 0.08073,0.46875 0.08073,0.197916 0.221354,0.325521 0.135417,0.125 0.320313,0.187499 0.187499,0.0625 0.411458,0.0625 0.296874,0 0.596353,-0.117187 0.302084,-0.119793 0.429688,-0.234375 h 0.02604 v 0.533854 q -0.247395,0.104167 -0.505208,0.174479 -0.257812,0.07031 -0.541666,0.07031 -0.723958,0 -1.130208,-0.390625 -0.406249,-0.393229 -0.406249,-1.114583 0,-0.713541 0.38802,-1.132812 0.390625,-0.41927 1.026041,-0.41927 0.588542,0 0.90625,0.343749 0.320312,0.34375 0.320312,0.976562 z m -0.476562,-0.375 Q 68.687607,59.600074 68.494894,59.389138 68.30479,59.1782 67.914166,59.1782 q -0.393229,0 -0.627604,0.231771 -0.231771,0.231771 -0.263021,0.57552 z m 3.651039,1.778645 h -0.489583 v -1.656249 q 0,-0.200521 -0.02344,-0.375 -0.02344,-0.177083 -0.08594,-0.276042 -0.0651,-0.109375 -0.187499,-0.161458 -0.122396,-0.05469 -0.317709,-0.05469 -0.20052,0 -0.41927,0.09896 -0.21875,0.09896 -0.419271,0.252605 v 2.171873 h -0.489583 v -2.908852 h 0.489583 v 0.322916 q 0.229167,-0.190104 0.473958,-0.296875 0.244792,-0.10677 0.502604,-0.10677 0.471354,0 0.71875,0.283854 0.247395,0.283854 0.247395,0.817708 z m 3.020832,-0.838542 q 0,0.398437 -0.330729,0.653645 -0.328125,0.255209 -0.898437,0.255209 -0.322916,0 -0.59375,-0.07552 -0.268229,-0.07813 -0.45052,-0.169271 v -0.549478 h 0.02604 q 0.23177,0.174479 0.515624,0.278646 0.283854,0.101562 0.544271,0.101562 0.322916,0 0.505208,-0.104166 0.182291,-0.104167 0.182291,-0.328125 0,-0.171875 -0.09896,-0.260416 -0.09896,-0.08854 -0.380208,-0.151043 -0.104167,-0.02344 -0.273437,-0.05469 -0.166667,-0.03125 -0.304688,-0.06771 -0.382812,-0.101562 -0.54427,-0.296875 -0.158854,-0.197916 -0.158854,-0.484374 0,-0.179688 0.07292,-0.338542 0.07552,-0.158854 0.226563,-0.283854 0.145833,-0.122396 0.369791,-0.192708 0.226563,-0.07292 0.505208,-0.07292 0.260417,0 0.526042,0.0651 0.268229,0.0625 0.445312,0.153646 v 0.523437 h -0.02604 q -0.1875,-0.13802 -0.455729,-0.23177 -0.268229,-0.09635 -0.526041,-0.09635 -0.268229,0 -0.453125,0.104167 -0.184896,0.101562 -0.184896,0.304687 0,0.179688 0.11198,0.270833 0.109374,0.09114 0.354166,0.148437 0.135417,0.03125 0.302083,0.0625 0.169271,0.03125 0.28125,0.05729 0.341146,0.07813 0.526041,0.268229 0.184896,0.192708 0.184896,0.510417 z m 1.226561,-2.557289 h -0.552083 v -0.507812 h 0.552083 z m -0.03125,3.395831 h -0.489583 v -2.908852 h 0.489583 z m 2.479166,-0.02604 q -0.138021,0.03646 -0.302083,0.05989 -0.161459,0.02344 -0.289063,0.02344 -0.445312,0 -0.677083,-0.239582 -0.23177,-0.239584 -0.23177,-0.76823 v -1.546885 h -0.330729 v -0.411458 h 0.330729 v -0.835937 h 0.489583 v 0.835937 h 1.010416 v 0.411458 h -1.010416 v 1.32552 q 0,0.229166 0.01042,0.359375 0.01042,0.127604 0.07292,0.239583 0.05729,0.104167 0.15625,0.153645 0.101562,0.04687 0.307291,0.04687 0.119792,0 0.25,-0.03385 0.130208,-0.03646 0.1875,-0.0599 h 0.02604 z m 3.080727,-2.882811 -1.697916,3.981768 h -0.523437 l 0.541667,-1.213541 -1.158854,-2.768227 h 0.53125 l 0.893228,2.156249 0.901041,-2.156249 z"
     id="text7"
     style="font-size:5.33333px;font-family:Sans;-inkscape-font-specification:'Sans, Normal';letter-spacing:0px"
     aria-label="Density" />
  <path
     d="m 22.209122,61.499814 q -0.317708,0.145833 -0.695312,0.255208 -0.375,0.106771 -0.726562,0.106771 -0.453125,0 -0.830729,-0.125 -0.377604,-0.125 -0.643229,-0.375 -0.268229,-0.252604 -0.414062,-0.630208 -0.145833,-0.380208 -0.145833,-0.88802 0,-0.929687 0.541666,-1.466145 0.54427,-0.539062 1.492187,-0.539062 0.330728,0 0.674478,0.08073 0.346354,0.07813 0.744792,0.268229 v 0.611979 h -0.04687 q -0.08073,-0.0625 -0.234375,-0.164063 -0.153646,-0.101562 -0.302083,-0.16927 -0.179688,-0.08073 -0.408854,-0.132813 -0.226563,-0.05469 -0.515625,-0.05469 -0.651041,0 -1.031249,0.419269 -0.377604,0.416668 -0.377604,1.130208 0,0.752605 0.395833,1.171874 0.395833,0.416668 1.078124,0.416668 0.25,0 0.497396,-0.04948 0.249999,-0.04948 0.437499,-0.127605 v -0.95052 h -1.039062 v -0.453125 h 1.549479 z m 3.122394,0.286458 h -0.486979 v -0.309896 q -0.0651,0.04427 -0.177084,0.125 -0.109374,0.07813 -0.213541,0.125 -0.122396,0.0599 -0.28125,0.09896 -0.158854,0.04167 -0.372396,0.04167 -0.393228,0 -0.666666,-0.260416 -0.273437,-0.260417 -0.273437,-0.664062 0,-0.330729 0.140625,-0.533854 0.143229,-0.205729 0.40625,-0.322917 0.265624,-0.117187 0.63802,-0.158854 0.372396,-0.04167 0.799479,-0.0625 v -0.07552 q 0,-0.166666 -0.0599,-0.276041 -0.05729,-0.109375 -0.166667,-0.171875 -0.104166,-0.0599 -0.25,-0.08073 -0.145833,-0.02083 -0.304687,-0.02083 -0.192708,0 -0.429687,0.05208 -0.236979,0.04948 -0.489583,0.145833 h -0.02604 v -0.497395 q 0.143229,-0.03906 0.414062,-0.08594 0.270834,-0.04687 0.533854,-0.04687 0.307292,0 0.533854,0.05208 0.229167,0.04948 0.395833,0.171874 0.164063,0.119792 0.25,0.309896 0.08594,0.190104 0.08594,0.471354 z m -0.486979,-0.716145 v -0.809896 q -0.223959,0.01302 -0.528646,0.03906 -0.302083,0.02604 -0.479166,0.07552 -0.210938,0.05989 -0.341146,0.187499 -0.130208,0.125 -0.130208,0.346354 0,0.25 0.151041,0.377604 0.151042,0.125 0.460938,0.125 0.257812,0 0.471354,-0.09896 0.213541,-0.101562 0.395833,-0.242187 z m 3.989581,-0.773437 q 0,0.354166 -0.101563,0.648437 -0.101562,0.291666 -0.286458,0.494791 -0.171875,0.192708 -0.40625,0.299479 -0.23177,0.104167 -0.492187,0.104167 -0.226562,0 -0.411458,-0.04948 -0.182292,-0.04948 -0.372396,-0.153646 v 1.218749 h -0.489583 v -3.981768 h 0.489583 v 0.304687 q 0.195313,-0.164062 0.4375,-0.273437 0.244792,-0.111979 0.520833,-0.111979 0.526041,0 0.817708,0.398437 0.294271,0.395833 0.294271,1.101563 z m -0.505208,0.01302 q 0,-0.526041 -0.179688,-0.786457 -0.179687,-0.260417 -0.552083,-0.260417 -0.210937,0 -0.424479,0.09115 -0.213541,0.09115 -0.408854,0.239583 v 1.648437 q 0.208334,0.09375 0.356771,0.127604 0.151042,0.03385 0.341146,0.03385 0.408854,0 0.63802,-0.276042 0.229167,-0.276041 0.229167,-0.817708 z m 4.604163,0.46875 q 0,0.510417 -0.3125,0.786458 -0.309895,0.276042 -0.833333,0.276042 -0.124999,0 -0.333333,-0.02344 -0.208333,-0.02083 -0.348958,-0.05208 v -0.481771 h 0.02865 q 0.106771,0.03646 0.263021,0.07552 0.15625,0.03906 0.320312,0.03906 0.239583,0 0.380208,-0.05469 0.143229,-0.05469 0.210938,-0.15625 0.07031,-0.104166 0.08854,-0.255208 0.02083,-0.151042 0.02083,-0.348958 v -2.263019 h -0.820312 v -0.411458 h 1.335937 z m 1.489583,-2.388019 h -0.552083 v -0.507812 h 0.552083 z m -0.03125,3.395831 H 33.901823 V 58.87742 h 0.489583 z m 2.479165,-0.02604 q -0.138021,0.03646 -0.302083,0.0599 -0.161459,0.02344 -0.289063,0.02344 -0.445312,0 -0.677083,-0.239583 -0.23177,-0.239584 -0.23177,-0.768229 v -1.546874 h -0.330729 v -0.411458 h 0.330729 v -0.835937 h 0.489583 v 0.835937 h 1.010416 v 0.411458 h -1.010416 v 1.32552 q 0,0.229166 0.01042,0.359375 0.01042,0.127604 0.07292,0.239583 0.05729,0.104166 0.15625,0.153646 0.101562,0.04687 0.307291,0.04687 0.119792,0 0.25,-0.03385 0.130209,-0.03646 0.1875,-0.05989 h 0.02604 z m 2.101562,0 q -0.13802,0.03646 -0.302083,0.0599 -0.161458,0.02344 -0.289062,0.02344 -0.445312,0 -0.677083,-0.239583 -0.231771,-0.239584 -0.231771,-0.768229 v -1.546874 h -0.330729 v -0.411458 h 0.330729 v -0.835937 h 0.489583 v 0.835937 h 1.010416 v 0.411458 h -1.010416 v 1.32552 q 0,0.229166 0.01042,0.359375 0.01042,0.127604 0.07292,0.239583 0.05729,0.104166 0.15625,0.153646 0.101562,0.04687 0.307291,0.04687 0.119792,0 0.25,-0.03385 0.130208,-0.03646 0.1875,-0.05989 h 0.02604 z m 3.02604,-1.377603 h -2.143228 q 0,0.268229 0.08073,0.46875 0.08073,0.197916 0.221354,0.32552 0.135416,0.125 0.320312,0.1875 0.1875,0.0625 0.411458,0.0625 0.296875,0 0.596354,-0.117187 0.302083,-0.119792 0.429687,-0.234375 h 0.02604 v 0.533854 q -0.247396,0.104166 -0.505208,0.174479 -0.257812,0.07031 -0.541666,0.07031 -0.723958,0 -1.130208,-0.390624 -0.40625,-0.393229 -0.40625,-1.114582 0,-0.713542 0.388021,-1.132813 0.390625,-0.419269 1.026041,-0.419269 0.588541,0 0.906249,0.343749 0.320313,0.34375 0.320313,0.976562 z m -0.476563,-0.375 q -0.0026,-0.385416 -0.195312,-0.596353 -0.190104,-0.210938 -0.580729,-0.210938 -0.393229,0 -0.627604,0.231771 -0.23177,0.231771 -0.26302,0.57552 z m 3.033853,-0.596353 h -0.02604 q -0.109375,-0.02604 -0.213542,-0.03646 -0.101562,-0.01302 -0.242187,-0.01302 -0.226563,0 -0.4375,0.101563 -0.210937,0.09896 -0.40625,0.257812 v 2.065103 h -0.489583 v -2.908852 h 0.489583 v 0.429687 q 0.291667,-0.234375 0.513021,-0.330729 0.223958,-0.09896 0.455729,-0.09896 0.127604,0 0.184895,0.0078 0.05729,0.0052 0.171875,0.02344 z"
     id="text9"
     style="font-size:5.33333px;font-family:Sans;-inkscape-font-specification:'Sans, Normal';letter-spacing:0px"
     aria-label="Gap Jitter" />
  <path
     d="m 103.22204,59.948713 q 0,0.528646 -0.23177,0.958333 -0.22917,0.429687 -0.61198,0.666666 -0.26562,0.164063 -0.59375,0.236979 -0.32552,0.07292 -0.85936,0.07292 h -0.97917 v -3.877602 h 0.96875 q 0.5677,0 0.90103,0.08333 0.33594,0.08073 0.56771,0.223958 0.39583,0.247395 0.61719,0.658853 0.22135,0.411458 0.22135,0.976563 z m -0.53906,-0.0078 q 0,-0.455729 -0.15886,-0.768229 -0.15885,-0.3125 -0.47395,-0.492187 -0.22917,-0.130208 -0.48698,-0.179688 -0.25782,-0.05208 -0.61718,-0.05208 h -0.48438 v 2.992186 h 0.48438 q 0.37238,0 0.64843,-0.05469 0.27864,-0.05469 0.51041,-0.203124 0.28906,-0.184896 0.43229,-0.486979 0.14584,-0.302083 0.14584,-0.755209 z m 3.74479,1.942707 h -0.48959 v -0.322917 q -0.24739,0.195313 -0.47395,0.299479 -0.22657,0.104167 -0.5,0.104167 -0.45834,0 -0.71355,-0.278646 -0.2552,-0.281249 -0.2552,-0.822916 v -1.888019 h 0.48958 v 1.656249 q 0,0.221354 0.0208,0.380208 0.0208,0.15625 0.0885,0.268229 0.0703,0.114583 0.1823,0.166666 0.11198,0.05208 0.32552,0.05208 0.1901,0 0.41406,-0.09896 0.22656,-0.09896 0.42187,-0.252604 v -2.171873 h 0.48959 z m 2.77864,-2.374999 h -0.026 q -0.10938,-0.02604 -0.21354,-0.03646 -0.10156,-0.01302 -0.24219,-0.01302 -0.22656,0 -0.4375,0.101563 -0.21094,0.09896 -0.40625,0.257812 v 2.065103 h -0.48958 v -2.908852 h 0.48958 v 0.429687 q 0.29167,-0.234375 0.51302,-0.330729 0.22396,-0.09896 0.45573,-0.09896 0.1276,0 0.1849,0.0078 0.0573,0.0052 0.17187,0.02344 z m 3.79687,1.367187 q 0,0.510416 -0.3125,0.786458 -0.30989,0.276041 -0.83333,0.276041 -0.125,0 -0.33333,-0.02344 -0.20833,-0.02083 -0.34896,-0.05208 v -0.481771 h 0.0286 q 0.10677,0.03646 0.26302,0.07552 0.15625,0.03906 0.32031,0.03906 0.23958,0 0.38021,-0.05469 0.14323,-0.05469 0.21093,-0.15625 0.0703,-0.104167 0.0885,-0.255208 0.0208,-0.151042 0.0208,-0.348958 v -2.26302 h -0.82031 v -0.411458 h 1.33593 z m 1.48959,-2.388019 h -0.55209 v -0.507813 h 0.55209 z m -0.0312,3.395831 h -0.48959 v -2.908852 h 0.48959 z m 2.47916,-0.02604 q -0.13802,0.03646 -0.30208,0.0599 -0.16146,0.02344 -0.28906,0.02344 -0.44532,0 -0.67709,-0.239584 -0.23177,-0.239583 -0.23177,-0.768228 v -1.546874 h -0.33073 v -0.411458 h 0.33073 v -0.835937 h 0.48959 v 0.835937 h 1.01041 v 0.411458 h -1.01041 v 1.32552 q 0,0.229166 0.0104,0.359374 0.0104,0.127605 0.0729,0.239584 0.0573,0.104166 0.15625,0.153645 0.10156,0.04687 0.30729,0.04687 0.11979,0 0.25,-0.03385 0.13021,-0.03646 0.1875,-0.0599 h 0.026 z m 2.10156,0 q -0.13802,0.03646 -0.30208,0.0599 -0.16146,0.02344 -0.28906,0.02344 -0.44531,0 -0.67708,-0.239584 -0.23178,-0.239583 -0.23178,-0.768228 v -1.546874 h -0.33072 v -0.411458 h 0.33072 v -0.835937 h 0.48959 v 0.835937 h 1.01041 v 0.411458 h -1.01041 v 1.32552 q 0,0.229166 0.0104,0.359374 0.0104,0.127605 0.0729,0.239584 0.0573,0.104166 0.15625,0.153645 0.10156,0.04687 0.30729,0.04687 0.11979,0 0.25,-0.03385 0.13021,-0.03646 0.1875,-0.0599 h 0.026 z m 3.02604,-1.377603 h -2.14323 q 0,0.26823 0.0807,0.46875 0.0807,0.197917 0.22136,0.32552 0.13541,0.125 0.32031,0.1875 0.1875,0.0625 0.41146,0.0625 0.29687,0 0.59635,-0.117187 0.30209,-0.119792 0.42969,-0.234375 h 0.026 v 0.533854 q -0.24739,0.104167 -0.50521,0.17448 -0.25781,0.07031 -0.54166,0.07031 -0.72396,0 -1.13021,-0.390625 -0.40625,-0.393228 -0.40625,-1.114582 0,-0.713541 0.38802,-1.132812 0.39062,-0.419271 1.02604,-0.419271 0.58854,0 0.90625,0.34375 0.32031,0.34375 0.32031,0.976562 z m -0.47656,-0.375 q -0.003,-0.385416 -0.19531,-0.596354 -0.19011,-0.210937 -0.58073,-0.210937 -0.39323,0 -0.6276,0.231771 -0.23178,0.23177 -0.26303,0.57552 z m 3.03385,-0.596354 h -0.026 q -0.10937,-0.02604 -0.21354,-0.03646 -0.10156,-0.01302 -0.24219,-0.01302 -0.22656,0 -0.4375,0.101563 -0.21093,0.09896 -0.40625,0.257812 v 2.065103 h -0.48958 v -2.908852 h 0.48958 v 0.429687 q 0.29167,-0.234375 0.51302,-0.330729 0.22396,-0.09896 0.45573,-0.09896 0.12761,0 0.1849,0.0078 0.0573,0.0052 0.17187,0.02344 z"
     id="text10"
     style="font-size:5.33333px;font-family:Sans;-inkscape-font-specification:'Sans, Normal';letter-spacing:0px"
     aria-label="Dur Jitter" />
  <path
     d="m 14.718577,211.60327 q 0,0.52864 -0.231771,0.95833 -0.229166,0.42969 -0.611978,0.66667 -0.265625,0.16406 -0.59375,0.23698 -0.325521,0.0729 -0.859375,0.0729 h -0.979166 v -3.8776 h 0.96875 q 0.567708,0 0.901041,0.0833 0.335937,0.0807 0.567708,0.22396 0.395833,0.2474 0.617187,0.65886 0.221354,0.41145 0.221354,0.97656 z m -0.539062,-0.008 q 0,-0.45573 -0.158854,-0.76823 -0.158854,-0.3125 -0.473958,-0.49219 -0.229167,-0.13021 -0.486979,-0.17969 -0.257812,-0.0521 -0.617187,-0.0521 h -0.484375 v 2.99218 h 0.484375 q 0.372395,0 0.648437,-0.0547 0.278645,-0.0547 0.510416,-0.20313 0.289063,-0.18489 0.432292,-0.48698 0.145833,-0.30208 0.145833,-0.7552 z m 3.744789,1.9427 h -0.489583 v -0.32291 q -0.247395,0.19531 -0.473958,0.29947 -0.226562,0.10417 -0.499999,0.10417 -0.458334,0 -0.713542,-0.27864 -0.255208,-0.28125 -0.255208,-0.82292 v -1.88802 h 0.489583 v 1.65625 q 0,0.22135 0.02083,0.38021 0.02083,0.15625 0.08854,0.26823 0.07031,0.11458 0.182292,0.16666 0.111979,0.0521 0.32552,0.0521 0.190104,0 0.414063,-0.099 0.226562,-0.099 0.421874,-0.25261 v -2.17187 h 0.489583 z m 2.778645,-2.375 h -0.02604 q -0.109375,-0.026 -0.213542,-0.0365 -0.101562,-0.013 -0.242187,-0.013 -0.226562,0 -0.4375,0.10157 -0.210937,0.099 -0.406249,0.25781 v 2.0651 h -0.489583 v -2.90885 h 0.489583 v 0.42969 q 0.291666,-0.23438 0.51302,-0.33073 0.223958,-0.099 0.455729,-0.099 0.127604,0 0.184896,0.008 0.05729,0.005 0.171875,0.0234 z m 2.627602,2.375 h -0.486978 v -0.30989 q -0.0651,0.0443 -0.177084,0.125 -0.109375,0.0781 -0.213541,0.125 -0.122396,0.0599 -0.28125,0.099 -0.158854,0.0417 -0.372396,0.0417 -0.393229,0 -0.666666,-0.26042 -0.273437,-0.26041 -0.273437,-0.66406 0,-0.33073 0.140625,-0.53385 0.143229,-0.20573 0.406249,-0.32292 0.265625,-0.11719 0.638021,-0.15885 0.372395,-0.0417 0.799479,-0.0625 v -0.0755 q 0,-0.16667 -0.0599,-0.27604 -0.05729,-0.10938 -0.166667,-0.17188 -0.104166,-0.0599 -0.25,-0.0807 -0.145833,-0.0208 -0.304687,-0.0208 -0.192708,0 -0.429687,0.0521 -0.236979,0.0495 -0.489583,0.14584 h -0.02604 v -0.4974 q 0.143229,-0.0391 0.414062,-0.0859 0.270833,-0.0469 0.533854,-0.0469 0.307292,0 0.533854,0.0521 0.229167,0.0495 0.395833,0.17188 0.164063,0.11979 0.25,0.30989 0.08594,0.19011 0.08594,0.47136 z m -0.486978,-0.71614 v -0.8099 q -0.223959,0.013 -0.528646,0.0391 -0.302083,0.026 -0.479166,0.0755 -0.210938,0.0599 -0.341146,0.1875 -0.130208,0.125 -0.130208,0.34636 0,0.25 0.151041,0.3776 0.151042,0.125 0.460938,0.125 0.257812,0 0.471353,-0.099 0.213542,-0.10156 0.395834,-0.24218 z m 2.940102,0.6901 q -0.138021,0.0365 -0.302083,0.0599 -0.161458,0.0234 -0.289063,0.0234 -0.445312,0 -0.677082,-0.23958 -0.231771,-0.23958 -0.231771,-0.76823 v -1.54687 h -0.330729 v -0.41146 h 0.330729 v -0.83594 h 0.489583 v 0.83594 h 1.010416 v 0.41146 h -1.010416 v 1.32552 q 0,0.22916 0.01042,0.35937 0.01042,0.12761 0.07292,0.23959 0.05729,0.10416 0.15625,0.15364 0.101563,0.0469 0.307292,0.0469 0.119791,0 0.249999,-0.0339 0.130209,-0.0365 0.1875,-0.0599 h 0.02604 z m 1.117187,-3.36979 h -0.552083 v -0.50781 h 0.552083 z m -0.03125,3.39583 h -0.489583 v -2.90885 h 0.489583 z m 3.447915,-1.45312 q 0,0.71094 -0.364583,1.12239 -0.364583,0.41146 -0.976562,0.41146 -0.617187,0 -0.98177,-0.41146 -0.361979,-0.41145 -0.361979,-1.12239 0,-0.71094 0.361979,-1.1224 0.364583,-0.41406 0.98177,-0.41406 0.611979,0 0.976562,0.41406 0.364583,0.41146 0.364583,1.1224 z m -0.505208,0 q 0,-0.56511 -0.221354,-0.83854 -0.221354,-0.27604 -0.614583,-0.27604 -0.398437,0 -0.619791,0.27604 -0.21875,0.27343 -0.21875,0.83854 0,0.54687 0.221354,0.83073 0.221354,0.28125 0.617187,0.28125 0.390625,0 0.611979,-0.27865 0.223958,-0.28125 0.223958,-0.83333 z m 3.69531,1.45312 h -0.489583 v -1.65625 q 0,-0.20052 -0.02344,-0.375 -0.02344,-0.17708 -0.08594,-0.27604 -0.0651,-0.10937 -0.1875,-0.16146 -0.122396,-0.0547 -0.317708,-0.0547 -0.200521,0 -0.419271,0.099 -0.21875,0.099 -0.419271,0.25261 v 2.17187 h -0.489583 v -2.90885 h 0.489583 v 0.32292 q 0.229167,-0.19011 0.473958,-0.29688 0.244792,-0.10677 0.502604,-0.10677 0.471354,0 0.71875,0.28385 0.247396,0.28386 0.247396,0.81771 z"
     id="text2"
     style="font-size:5.33333px;font-family:Sans;-inkscape-font-specification:'Sans, Normal';letter-spacing:0px"
     aria-label="Duration" />
  <text
     xml:space="preserve"
     style="font-size:5.33333px;font-family:Sans;-inkscape-font-specification:'Sans, Normal';text-align:start;letter-spacing:0px;writing-mode:lr-tb;direction:ltr;text-anchor:start;fill:#000000"
     x="-24.103071"
     y="203.74628"
     id="text3"><tspan
       sodipodi:role="line"
       id="tspan3" /></text>
  <path
     d="m 19.480706,320.46575 h -1.385415 v 3.41927 h -0.515625 v -3.41927 H 16.19425 v -0.45833 h 3.286456 z m 1.776041,1.04427 h -0.02604 q -0.109375,-0.026 -0.213541,-0.0365 -0.101563,-0.013 -0.242187,-0.013 -0.226563,0 -0.4375,0.10156 -0.210938,0.099 -0.40625,0.25782 v 2.0651 h -0.489583 v -2.90885 h 0.489583 v 0.42968 q 0.291667,-0.23437 0.513021,-0.33072 0.223958,-0.099 0.455728,-0.099 0.127605,0 0.184896,0.008 0.05729,0.005 0.171875,0.0234 z m 0.986979,-1.02083 h -0.552083 v -0.50781 h 0.552083 z m -0.03125,3.39583 h -0.489583 v -2.90885 h 0.489583 z m 3.328122,-0.33073 q 0,0.73958 -0.335937,1.08594 -0.335937,0.34635 -1.033853,0.34635 -0.231771,0 -0.453125,-0.0338 -0.21875,-0.0312 -0.432292,-0.0912 v -0.5 h 0.02604 q 0.119792,0.0469 0.380208,0.11459 0.260417,0.0703 0.520833,0.0703 0.25,0 0.414062,-0.0599 0.164063,-0.0599 0.255209,-0.16666 0.09115,-0.10157 0.130208,-0.2448 0.03906,-0.14323 0.03906,-0.32031 v -0.26562 q -0.221354,0.17708 -0.424479,0.26562 -0.20052,0.0859 -0.51302,0.0859 -0.520833,0 -0.828125,-0.375 -0.304687,-0.3776 -0.304687,-1.0625 0,-0.375 0.104167,-0.64583 0.106771,-0.27344 0.289062,-0.47136 0.169271,-0.18489 0.411458,-0.28646 0.242188,-0.10416 0.481771,-0.10416 0.252604,0 0.421874,0.0521 0.171875,0.0495 0.361979,0.15365 l 0.03125,-0.125 h 0.458333 z m -0.489583,-0.46875 v -1.58594 q -0.195312,-0.0885 -0.364583,-0.125 -0.166666,-0.0391 -0.333333,-0.0391 -0.403645,0 -0.635416,0.27084 -0.231771,0.27083 -0.231771,0.78645 0,0.48959 0.171875,0.74219 0.171875,0.2526 0.570312,0.2526 0.213542,0 0.427083,-0.0807 0.216146,-0.0833 0.395833,-0.22136 z"
     id="text4"
     style="font-size:5.33333px;font-family:Sans;-inkscape-font-specification:'Sans, Normal';letter-spacing:0px"
     aria-label="Trig" />
  <path
     d="m 54.122928,320.46575 h -1.385416 v 3.41927 h -0.515625 v -3.41927 h -1.385415 v -0.45833 h 3.286456 z m 1.776041,1.04427 h -0.02604 q -0.109375,-0.026 -0.213542,-0.0365 -0.101562,-0.013 -0.242187,-0.013 -0.226562,0 -0.4375,0.10156 -0.210937,0.099 -0.40625,0.25782 v 2.0651 h -0.489583 v -2.90885 h 0.489583 v 0.42968 q 0.291667,-0.23437 0.513021,-0.33072 0.223958,-0.099 0.455729,-0.099 0.127604,0 0.184896,0.008 0.05729,0.005 0.171875,0.0234 z m 0.986978,-1.02083 h -0.552083 v -0.50781 h 0.552083 z m -0.03125,3.39583 h -0.489583 v -2.90885 h 0.489583 z m 3.328123,-0.33073 q 0,0.73958 -0.335937,1.08594 -0.335938,0.34635 -1.033854,0.34635 -0.231771,0 -0.453125,-0.0338 -0.21875,-0.0312 -0.432291,-0.0912 v -0.5 h 0.02604 q 0.119791,0.0469 0.380208,0.11459 0.260416,0.0703 0.520833,0.0703 0.25,0 0.414062,-0.0599 0.164062,-0.0599 0.255208,-0.16666 0.09115,-0.10157 0.130208,-0.2448 0.03906,-0.14323 0.03906,-0.32031 v -0.26562 q -0.221354,0.17708 -0.424479,0.26562 -0.200521,0.0859 -0.513021,0.0859 -0.520833,0 -0.828124,-0.375 -0.304687,-0.3776 -0.304687,-1.0625 0,-0.375 0.104166,-0.64583 0.106771,-0.27344 0.289063,-0.47136 0.16927,-0.18489 0.411458,-0.28646 0.242187,-0.10416 0.48177,-0.10416 0.252604,0 0.421875,0.0521 0.171875,0.0495 0.361979,0.15365 l 0.03125,-0.125 h 0.458333 z m -0.489583,-0.46875 v -1.58594 q -0.195313,-0.0885 -0.364583,-0.125 -0.166667,-0.0391 -0.333333,-0.0391 -0.403646,0 -0.635417,0.27084 -0.23177,0.27083 -0.23177,0.78645 0,0.48959 0.171875,0.74219 0.171874,0.2526 0.570312,0.2526 0.213541,0 0.427083,-0.0807 0.216145,-0.0833 0.395833,-0.22136 z"
     id="text4-2"
     style="font-size:5.33333px;font-family:Sans;-inkscape-font-specification:'Sans, Normal';letter-spacing:0px"
     aria-label="Trig" />
  <path
     d="m 88.21014,320.46575 h -1.385416 v 3.41927 h -0.515625 v -3.41927 h -1.385416 v -0.45833 h 3.286457 z m 1.77604,1.04427 h -0.02604 q -0.109374,-0.026 -0.213541,-0.0365 -0.101563,-0.013 -0.242187,-0.013 -0.226563,0 -0.4375,0.10156 -0.210938,0.099 -0.40625,0.25782 v 2.0651 h -0.489583 v -2.90885 h 0.489583 v 0.42968 q 0.291667,-0.23437 0.513021,-0.33072 0.223958,-0.099 0.455729,-0.099 0.127604,0 0.184895,0.008 0.05729,0.005 0.171875,0.0234 z m 0.986979,-1.02083 h -0.552083 v -0.50781 h 0.552083 z m -0.03125,3.39583 h -0.489583 v -2.90885 h 0.489583 z m 3.328123,-0.33073 q 0,0.73958 -0.335938,1.08594 -0.335937,0.34635 -1.033853,0.34635 -0.231771,0 -0.453125,-0.0338 -0.21875,-0.0312 -0.432291,-0.0912 v -0.5 h 0.02604 q 0.119792,0.0469 0.380208,0.11459 0.260417,0.0703 0.520833,0.0703 0.25,0 0.414063,-0.0599 0.164062,-0.0599 0.255208,-0.16666 0.09115,-0.10157 0.130208,-0.2448 0.03906,-0.14323 0.03906,-0.32031 v -0.26562 q -0.221354,0.17708 -0.424478,0.26562 -0.200521,0.0859 -0.513021,0.0859 -0.520833,0 -0.828124,-0.375 -0.304688,-0.3776 -0.304688,-1.0625 0,-0.375 0.104167,-0.64583 0.106771,-0.27344 0.289062,-0.47136 0.169271,-0.18489 0.411458,-0.28646 0.242188,-0.10416 0.481771,-0.10416 0.252604,0 0.421875,0.0521 0.171874,0.0495 0.361978,0.15365 l 0.03125,-0.125 h 0.458334 z m -0.489584,-0.46875 v -1.58594 q -0.195312,-0.0885 -0.364583,-0.125 -0.166666,-0.0391 -0.333333,-0.0391 -0.403645,0 -0.635416,0.27084 -0.231771,0.27083 -0.231771,0.78645 0,0.48959 0.171875,0.74219 0.171875,0.2526 0.570312,0.2526 0.213542,0 0.427083,-0.0807 0.216146,-0.0833 0.395833,-0.22136 z"
     id="text4-3"
     style="font-size:5.33333px;font-family:Sans;-inkscape-font-specification:'Sans, Normal';letter-spacing:0px"
     aria-label="Trig" />
  <path
     d="m 121.89695,320.46575 h -1.38541 v 3.41927 h -0.51563 v -3.41927 h -1.38541 v -0.45833 h 3.28645 z m 1.77604,1.04427 h -0.026 q -0.10937,-0.026 -0.21354,-0.0365 -0.10156,-0.013 -0.24219,-0.013 -0.22656,0 -0.4375,0.10156 -0.21093,0.099 -0.40625,0.25782 v 2.0651 h -0.48958 v -2.90885 h 0.48958 v 0.42968 q 0.29167,-0.23437 0.51302,-0.33072 0.22396,-0.099 0.45573,-0.099 0.12761,0 0.1849,0.008 0.0573,0.005 0.17187,0.0234 z m 0.98698,-1.02083 h -0.55208 v -0.50781 h 0.55208 z m -0.0312,3.39583 h -0.48958 v -2.90885 h 0.48958 z m 3.32812,-0.33073 q 0,0.73958 -0.33593,1.08594 -0.33594,0.34635 -1.03386,0.34635 -0.23177,0 -0.45312,-0.0338 -0.21875,-0.0312 -0.43229,-0.0912 v -0.5 h 0.026 q 0.11979,0.0469 0.38021,0.11459 0.26041,0.0703 0.52083,0.0703 0.25,0 0.41406,-0.0599 0.16407,-0.0599 0.25521,-0.16666 0.0911,-0.10157 0.13021,-0.2448 0.0391,-0.14323 0.0391,-0.32031 v -0.26562 q -0.22135,0.17708 -0.42448,0.26562 -0.20052,0.0859 -0.51302,0.0859 -0.52083,0 -0.82812,-0.375 -0.30469,-0.3776 -0.30469,-1.0625 0,-0.375 0.10417,-0.64583 0.10677,-0.27344 0.28906,-0.47136 0.16927,-0.18489 0.41146,-0.28646 0.24218,-0.10416 0.48177,-0.10416 0.2526,0 0.42187,0.0521 0.17188,0.0495 0.36198,0.15365 l 0.0312,-0.125 h 0.45833 z m -0.48958,-0.46875 v -1.58594 q -0.19531,-0.0885 -0.36458,-0.125 -0.16667,-0.0391 -0.33333,-0.0391 -0.40365,0 -0.63542,0.27084 -0.23177,0.27083 -0.23177,0.78645 0,0.48959 0.17187,0.74219 0.17188,0.2526 0.57032,0.2526 0.21354,0 0.42708,-0.0807 0.21614,-0.0833 0.39583,-0.22136 z"
     id="text4-0"
     style="font-size:5.33333px;font-family:Sans;-inkscape-font-specification:'Sans, Normal';letter-spacing:0px"
     aria-label="Trig" />
  <text
     xml:space="preserve"
     style="font-size:5.33333px;font-family:Sans;-inkscape-font-specification:'Sans, Normal';text-align:start;letter-spacing:0px;writing-mode:lr-tb;direction:ltr;text-anchor:start;fill:#000000"
     x="192.07135"
     y="312.21011"
     id="text12"><tspan
       sodipodi:role="line"
       id="tspan4" /></text>
  <path
     d="m 17.838608,167.85679 -1.007812,3.8776 h -0.580728 l -0.815104,-3.21875 -0.796875,3.21875 h -0.567708 l -1.026041,-3.8776 h 0.528646 l 0.815104,3.22395 0.802082,-3.22395 h 0.523438 l 0.809895,3.2552 0.809895,-3.2552 z m 2.895832,2.47396 h -2.143228 q 0,0.26822 0.08073,0.46874 0.08073,0.19792 0.221354,0.32553 0.135417,0.125 0.320312,0.1875 0.1875,0.0625 0.411458,0.0625 0.296875,0 0.596354,-0.11719 0.302083,-0.11979 0.429687,-0.23438 h 0.02604 v 0.53386 q -0.247396,0.10416 -0.505208,0.17448 -0.257812,0.0703 -0.541666,0.0703 -0.723958,0 -1.130208,-0.39063 -0.40625,-0.39323 -0.40625,-1.11458 0,-0.71354 0.388021,-1.13281 0.390625,-0.41927 1.026041,-0.41927 0.588541,0 0.906249,0.34375 0.320313,0.34375 0.320313,0.97656 z m -0.476563,-0.375 q -0.0026,-0.38542 -0.195312,-0.59636 -0.190104,-0.21094 -0.580729,-0.21094 -0.393229,0 -0.627604,0.23177 -0.23177,0.23178 -0.26302,0.57553 z m 1.744792,-1.61719 h -0.552083 v -0.50781 h 0.552083 z m -0.03125,3.39583 h -0.489583 v -2.90885 h 0.489583 z m 3.328122,-0.33073 q 0,0.73958 -0.335937,1.08594 -0.335938,0.34635 -1.033854,0.34635 -0.23177,0 -0.453125,-0.0339 -0.218749,-0.0312 -0.432291,-0.0911 v -0.5 h 0.02604 q 0.119791,0.0469 0.380208,0.11459 0.260416,0.0703 0.520833,0.0703 0.25,0 0.414062,-0.0599 0.164062,-0.0599 0.255208,-0.16666 0.09115,-0.10157 0.130209,-0.2448 0.03906,-0.14322 0.03906,-0.32031 v -0.26562 q -0.221354,0.17708 -0.424479,0.26562 -0.200521,0.0859 -0.51302,0.0859 -0.520833,0 -0.828125,-0.375 -0.304687,-0.3776 -0.304687,-1.0625 0,-0.375 0.104166,-0.64583 0.106771,-0.27344 0.289063,-0.47136 0.16927,-0.18489 0.411458,-0.28645 0.242187,-0.10417 0.48177,-0.10417 0.252604,0 0.421875,0.0521 0.171875,0.0495 0.361979,0.15365 l 0.03125,-0.125 h 0.458333 z m -0.489583,-0.46875 v -1.58593 q -0.195312,-0.0885 -0.364583,-0.125 -0.166667,-0.0391 -0.333333,-0.0391 -0.403646,0 -0.635417,0.27084 -0.23177,0.27083 -0.23177,0.78645 0,0.48959 0.171875,0.74219 0.171875,0.2526 0.570312,0.2526 0.213541,0 0.427083,-0.0807 0.216146,-0.0833 0.395833,-0.22136 z m 3.885415,0.79948 H 28.20579 v -1.65625 q 0,-0.20052 -0.02344,-0.375 -0.02344,-0.17708 -0.08594,-0.27604 -0.0651,-0.10937 -0.1875,-0.16146 -0.122396,-0.0547 -0.317708,-0.0547 -0.200521,0 -0.419271,0.099 -0.21875,0.099 -0.41927,0.25261 v 2.17187 h -0.489583 v -4.05208 h 0.489583 v 1.46614 q 0.229166,-0.1901 0.473958,-0.29687 0.244791,-0.10677 0.502603,-0.10677 0.471354,0 0.71875,0.28385 0.247396,0.28386 0.247396,0.81771 z m 2.453123,-0.026 q -0.13802,0.0365 -0.302083,0.0599 -0.161458,0.0234 -0.289062,0.0234 -0.445312,0 -0.677083,-0.23958 -0.231771,-0.23958 -0.231771,-0.76823 V 169.237 h -0.330729 v -0.41146 h 0.330729 v -0.83594 h 0.489583 v 0.83594 h 1.010416 V 169.237 H 30.13808 v 1.32552 q 0,0.22916 0.01042,0.35937 0.01042,0.1276 0.07292,0.23958 0.05729,0.10417 0.15625,0.15365 0.101562,0.0469 0.307291,0.0469 0.119792,0 0.25,-0.0339 0.130208,-0.0365 0.1875,-0.0599 h 0.02604 z"
     id="text11"
     style="font-size:5.33333px;font-family:Sans;-inkscape-font-specification:'Sans, Normal';letter-spacing:0px"
     aria-label="Weight" />
</svg>
